<?xml version="1.0" encoding="UTF-8"?>
<svg xmlns="http://www.w3.org/2000/svg" width="1100" height="1030" viewBox="0 0 1100 1030" role="img" aria-labelledby="title desc">
  <title id="title">Hexpira v0.4R demonstration symbol</title>
  <desc id="desc">A robust-profile Hexpira symbol encoding a multilingual demonstration string.</desc>
  <rect width="100%" height="100%" rx="42" fill="#f7f8fa"/>
  <g fill="#ffffff" stroke="#e5e7eb" stroke-width="0.7"><polygon points="594.17,471.50 594.17,488.50 579.44,497.00 564.72,488.50 564.72,471.50 579.44,463.00"/><polygon points="579.44,446.00 579.44,463.00 564.72,471.50 550.00,463.00 550.00,446.00 564.72,437.50"/><polygon points="535.28,471.50 535.28,488.50 520.56,497.00 505.83,488.50 505.83,471.50 520.56,463.00"/><polygon points="594.17,522.50 594.17,539.50 579.44,548.00 564.72,539.50 564.72,522.50 579.44,514.00"/><polygon points="608.89,497.00 608.89,514.00 594.17,522.50 579.44,514.00 579.44,497.00 594.17,488.50"/><polygon points="608.89,446.00 608.89,463.00 594.17,471.50 579.44,463.00 579.44,446.00 594.17,437.50"/><polygon points="594.17,420.50 594.17,437.50 579.44,446.00 564.72,437.50 564.72,420.50 579.44,412.00"/><polygon points="564.72,420.50 564.72,437.50 550.00,446.00 535.28,437.50 535.28,420.50 550.00,412.00"/><polygon points="520.56,446.00 520.56,463.00 505.83,471.50 491.11,463.00 491.11,446.00 505.83,437.50"/><polygon points="520.56,548.00 520.56,565.00 505.83,573.50 491.11,565.00 491.11,548.00 505.83,539.50"/><polygon points="579.44,548.00 579.44,565.00 564.72,573.50 550.00,565.00 550.00,548.00 564.72,539.50"/><polygon points="608.89,548.00 608.89,565.00 594.17,573.50 579.44,565.00 579.44,548.00 594.17,539.50"/><polygon points="623.61,522.50 623.61,539.50 608.89,548.00 594.17,539.50 594.17,522.50 608.89,514.00"/><polygon points="623.61,420.50 623.61,437.50 608.89,446.00 594.17,437.50 594.17,420.50 608.89,412.00"/><polygon points="579.44,395.00 579.44,412.00 564.72,420.50 550.00,412.00 550.00,395.00 564.72,386.50"/><polygon points="505.83,420.50 505.83,437.50 491.11,446.00 476.39,437.50 476.39,420.50 491.11,412.00"/><polygon points="491.11,446.00 491.11,463.00 476.39,471.50 461.67,463.00 461.67,446.00 476.39,437.50"/><polygon points="491.11,497.00 491.11,514.00 476.39,522.50 461.67,514.00 461.67,497.00 476.39,488.50"/><polygon points="505.83,522.50 505.83,539.50 491.11,548.00 476.39,539.50 476.39,522.50 491.11,514.00"/><polygon points="594.17,573.50 594.17,590.50 579.44,599.00 564.72,590.50 564.72,573.50 579.44,565.00"/><polygon points="667.78,446.00 667.78,463.00 653.06,471.50 638.33,463.00 638.33,446.00 653.06,437.50"/><polygon points="594.17,369.50 594.17,386.50 579.44,395.00 564.72,386.50 564.72,369.50 579.44,361.00"/><polygon points="564.72,369.50 564.72,386.50 550.00,395.00 535.28,386.50 535.28,369.50 550.00,361.00"/><polygon points="491.11,395.00 491.11,412.00 476.39,420.50 461.67,412.00 461.67,395.00 476.39,386.50"/><polygon points="476.39,420.50 476.39,437.50 461.67,446.00 446.94,437.50 446.94,420.50 461.67,412.00"/><polygon points="461.67,446.00 461.67,463.00 446.94,471.50 432.22,463.00 432.22,446.00 446.94,437.50"/><polygon points="446.94,471.50 446.94,488.50 432.22,497.00 417.50,488.50 417.50,471.50 432.22,463.00"/><polygon points="491.11,599.00 491.11,616.00 476.39,624.50 461.67,616.00 461.67,599.00 476.39,590.50"/><polygon points="550.00,599.00 550.00,616.00 535.28,624.50 520.56,616.00 520.56,599.00 535.28,590.50"/><polygon points="579.44,599.00 579.44,616.00 564.72,624.50 550.00,616.00 550.00,599.00 564.72,590.50"/><polygon points="667.78,395.00 667.78,412.00 653.06,420.50 638.33,412.00 638.33,395.00 653.06,386.50"/><polygon points="653.06,369.50 653.06,386.50 638.33,395.00 623.61,386.50 623.61,369.50 638.33,361.00"/><polygon points="638.33,344.00 638.33,361.00 623.61,369.50 608.89,361.00 608.89,344.00 623.61,335.50"/><polygon points="491.11,344.00 491.11,361.00 476.39,369.50 461.67,361.00 461.67,344.00 476.39,335.50"/><polygon points="476.39,369.50 476.39,386.50 461.67,395.00 446.94,386.50 446.94,369.50 461.67,361.00"/><polygon points="461.67,395.00 461.67,412.00 446.94,420.50 432.22,412.00 432.22,395.00 446.94,386.50"/><polygon points="432.22,497.00 432.22,514.00 417.50,522.50 402.78,514.00 402.78,497.00 417.50,488.50"/><polygon points="446.94,522.50 446.94,539.50 432.22,548.00 417.50,539.50 417.50,522.50 432.22,514.00"/><polygon points="461.67,548.00 461.67,565.00 446.94,573.50 432.22,565.00 432.22,548.00 446.94,539.50"/><polygon points="476.39,573.50 476.39,590.50 461.67,599.00 446.94,590.50 446.94,573.50 461.67,565.00"/><polygon points="564.72,624.50 564.72,641.50 550.00,650.00 535.28,641.50 535.28,624.50 550.00,616.00"/><polygon points="594.17,624.50 594.17,641.50 579.44,650.00 564.72,641.50 564.72,624.50 579.44,616.00"/><polygon points="653.06,624.50 653.06,641.50 638.33,650.00 623.61,641.50 623.61,624.50 638.33,616.00"/><polygon points="667.78,599.00 667.78,616.00 653.06,624.50 638.33,616.00 638.33,599.00 653.06,590.50"/><polygon points="697.22,548.00 697.22,565.00 682.50,573.50 667.78,565.00 667.78,548.00 682.50,539.50"/><polygon points="711.95,522.50 711.95,539.50 697.22,548.00 682.50,539.50 682.50,522.50 697.22,514.00"/><polygon points="711.95,420.50 711.95,437.50 697.22,446.00 682.50,437.50 682.50,420.50 697.22,412.00"/><polygon points="653.06,318.50 653.06,335.50 638.33,344.00 623.61,335.50 623.61,318.50 638.33,310.00"/><polygon points="594.17,318.50 594.17,335.50 579.44,344.00 564.72,335.50 564.72,318.50 579.44,310.00"/><polygon points="564.72,318.50 564.72,335.50 550.00,344.00 535.28,335.50 535.28,318.50 550.00,310.00"/><polygon points="476.39,318.50 476.39,335.50 461.67,344.00 446.94,335.50 446.94,318.50 461.67,310.00"/><polygon points="446.94,369.50 446.94,386.50 432.22,395.00 417.50,386.50 417.50,369.50 432.22,361.00"/><polygon points="417.50,420.50 417.50,437.50 402.78,446.00 388.05,437.50 388.05,420.50 402.78,412.00"/><polygon points="402.78,446.00 402.78,463.00 388.05,471.50 373.33,463.00 373.33,446.00 388.05,437.50"/><polygon points="432.22,548.00 432.22,565.00 417.50,573.50 402.78,565.00 402.78,548.00 417.50,539.50"/><polygon points="461.67,599.00 461.67,616.00 446.94,624.50 432.22,616.00 432.22,599.00 446.94,590.50"/><polygon points="520.56,650.00 520.56,667.00 505.83,675.50 491.11,667.00 491.11,650.00 505.83,641.50"/><polygon points="550.00,650.00 550.00,667.00 535.28,675.50 520.56,667.00 520.56,650.00 535.28,641.50"/><polygon points="579.44,650.00 579.44,667.00 564.72,675.50 550.00,667.00 550.00,650.00 564.72,641.50"/><polygon points="608.89,650.00 608.89,667.00 594.17,675.50 579.44,667.00 579.44,650.00 594.17,641.50"/><polygon points="682.50,624.50 682.50,641.50 667.78,650.00 653.06,641.50 653.06,624.50 667.78,616.00"/><polygon points="711.95,573.50 711.95,590.50 697.22,599.00 682.50,590.50 682.50,573.50 697.22,565.00"/><polygon points="741.39,522.50 741.39,539.50 726.67,548.00 711.95,539.50 711.95,522.50 726.67,514.00"/><polygon points="756.11,497.00 756.11,514.00 741.39,522.50 726.67,514.00 726.67,497.00 741.39,488.50"/><polygon points="756.11,446.00 756.11,463.00 741.39,471.50 726.67,463.00 726.67,446.00 741.39,437.50"/><polygon points="741.39,420.50 741.39,437.50 726.67,446.00 711.95,437.50 711.95,420.50 726.67,412.00"/><polygon points="726.67,395.00 726.67,412.00 711.95,420.50 697.22,412.00 697.22,395.00 711.95,386.50"/><polygon points="697.22,344.00 697.22,361.00 682.50,369.50 667.78,361.00 667.78,344.00 682.50,335.50"/><polygon points="667.78,293.00 667.78,310.00 653.06,318.50 638.33,310.00 638.33,293.00 653.06,284.50"/><polygon points="638.33,293.00 638.33,310.00 623.61,318.50 608.89,310.00 608.89,293.00 623.61,284.50"/><polygon points="608.89,293.00 608.89,310.00 594.17,318.50 579.44,310.00 579.44,293.00 594.17,284.50"/><polygon points="579.44,293.00 579.44,310.00 564.72,318.50 550.00,310.00 550.00,293.00 564.72,284.50"/><polygon points="461.67,293.00 461.67,310.00 446.94,318.50 432.22,310.00 432.22,293.00 446.94,284.50"/><polygon points="432.22,344.00 432.22,361.00 417.50,369.50 402.78,361.00 402.78,344.00 417.50,335.50"/><polygon points="417.50,369.50 417.50,386.50 402.78,395.00 388.05,386.50 388.05,369.50 402.78,361.00"/><polygon points="402.78,395.00 402.78,412.00 388.05,420.50 373.33,412.00 373.33,395.00 388.05,386.50"/><polygon points="432.22,599.00 432.22,616.00 417.50,624.50 402.78,616.00 402.78,599.00 417.50,590.50"/><polygon points="446.94,675.50 446.94,692.50 432.22,701.00 417.50,692.50 417.50,675.50 432.22,667.00"/><polygon points="476.39,675.50 476.39,692.50 461.67,701.00 446.94,692.50 446.94,675.50 461.67,667.00"/><polygon points="505.83,675.50 505.83,692.50 491.11,701.00 476.39,692.50 476.39,675.50 491.11,667.00"/><polygon points="535.28,675.50 535.28,692.50 520.56,701.00 505.83,692.50 505.83,675.50 520.56,667.00"/><polygon points="623.61,675.50 623.61,692.50 608.89,701.00 594.17,692.50 594.17,675.50 608.89,667.00"/><polygon points="653.06,675.50 653.06,692.50 638.33,701.00 623.61,692.50 623.61,675.50 638.33,667.00"/><polygon points="697.22,650.00 697.22,667.00 682.50,675.50 667.78,667.00 667.78,650.00 682.50,641.50"/><polygon points="711.95,624.50 711.95,641.50 697.22,650.00 682.50,641.50 682.50,624.50 697.22,616.00"/><polygon points="726.67,599.00 726.67,616.00 711.95,624.50 697.22,616.00 697.22,599.00 711.95,590.50"/><polygon points="741.39,573.50 741.39,590.50 726.67,599.00 711.95,590.50 711.95,573.50 726.67,565.00"/><polygon points="800.28,471.50 800.28,488.50 785.56,497.00 770.84,488.50 770.84,471.50 785.56,463.00"/><polygon points="785.56,446.00 785.56,463.00 770.84,471.50 756.11,463.00 756.11,446.00 770.84,437.50"/><polygon points="756.11,395.00 756.11,412.00 741.39,420.50 726.67,412.00 726.67,395.00 741.39,386.50"/><polygon points="741.39,369.50 741.39,386.50 726.67,395.00 711.95,386.50 711.95,369.50 726.67,361.00"/><polygon points="726.67,344.00 726.67,361.00 711.95,369.50 697.22,361.00 697.22,344.00 711.95,335.50"/><polygon points="711.95,318.50 711.95,335.50 697.22,344.00 682.50,335.50 682.50,318.50 697.22,310.00"/><polygon points="682.50,267.50 682.50,284.50 667.78,293.00 653.06,284.50 653.06,267.50 667.78,259.00"/><polygon points="653.06,267.50 653.06,284.50 638.33,293.00 623.61,284.50 623.61,267.50 638.33,259.00"/><polygon points="623.61,267.50 623.61,284.50 608.89,293.00 594.17,284.50 594.17,267.50 608.89,259.00"/><polygon points="564.72,267.50 564.72,284.50 550.00,293.00 535.28,284.50 535.28,267.50 550.00,259.00"/><polygon points="505.83,267.50 505.83,284.50 491.11,293.00 476.39,284.50 476.39,267.50 491.11,259.00"/><polygon points="432.22,293.00 432.22,310.00 417.50,318.50 402.78,310.00 402.78,293.00 417.50,284.50"/><polygon points="417.50,318.50 417.50,335.50 402.78,344.00 388.05,335.50 388.05,318.50 402.78,310.00"/><polygon points="402.78,344.00 402.78,361.00 388.05,369.50 373.33,361.00 373.33,344.00 388.05,335.50"/><polygon points="388.05,369.50 388.05,386.50 373.33,395.00 358.61,386.50 358.61,369.50 373.33,361.00"/><polygon points="373.33,395.00 373.33,412.00 358.61,420.50 343.89,412.00 343.89,395.00 358.61,386.50"/><polygon points="343.89,446.00 343.89,463.00 329.16,471.50 314.44,463.00 314.44,446.00 329.16,437.50"/><polygon points="329.16,471.50 329.16,488.50 314.44,497.00 299.72,488.50 299.72,471.50 314.44,463.00"/><polygon points="358.61,522.50 358.61,539.50 343.89,548.00 329.16,539.50 329.16,522.50 343.89,514.00"/><polygon points="373.33,548.00 373.33,565.00 358.61,573.50 343.89,565.00 343.89,548.00 358.61,539.50"/><polygon points="388.05,573.50 388.05,590.50 373.33,599.00 358.61,590.50 358.61,573.50 373.33,565.00"/><polygon points="402.78,599.00 402.78,616.00 388.05,624.50 373.33,616.00 373.33,599.00 388.05,590.50"/><polygon points="491.11,701.00 491.11,718.00 476.39,726.50 461.67,718.00 461.67,701.00 476.39,692.50"/><polygon points="608.89,701.00 608.89,718.00 594.17,726.50 579.44,718.00 579.44,701.00 594.17,692.50"/><polygon points="667.78,701.00 667.78,718.00 653.06,726.50 638.33,718.00 638.33,701.00 653.06,692.50"/><polygon points="741.39,624.50 741.39,641.50 726.67,650.00 711.95,641.50 711.95,624.50 726.67,616.00"/><polygon points="756.11,599.00 756.11,616.00 741.39,624.50 726.67,616.00 726.67,599.00 741.39,590.50"/><polygon points="800.28,522.50 800.28,539.50 785.56,548.00 770.84,539.50 770.84,522.50 785.56,514.00"/><polygon points="829.73,471.50 829.73,488.50 815.00,497.00 800.28,488.50 800.28,471.50 815.00,463.00"/><polygon points="815.00,446.00 815.00,463.00 800.28,471.50 785.56,463.00 785.56,446.00 800.28,437.50"/><polygon points="800.28,420.50 800.28,437.50 785.56,446.00 770.84,437.50 770.84,420.50 785.56,412.00"/><polygon points="785.56,395.00 785.56,412.00 770.84,420.50 756.11,412.00 756.11,395.00 770.84,386.50"/><polygon points="741.39,318.50 741.39,335.50 726.67,344.00 711.95,335.50 711.95,318.50 726.67,310.00"/><polygon points="697.22,242.00 697.22,259.00 682.50,267.50 667.78,259.00 667.78,242.00 682.50,233.50"/><polygon points="638.33,242.00 638.33,259.00 623.61,267.50 608.89,259.00 608.89,242.00 623.61,233.50"/><polygon points="608.89,242.00 608.89,259.00 594.17,267.50 579.44,259.00 579.44,242.00 594.17,233.50"/><polygon points="550.00,242.00 550.00,259.00 535.28,267.50 520.56,259.00 520.56,242.00 535.28,233.50"/><polygon points="461.67,242.00 461.67,259.00 446.94,267.50 432.22,259.00 432.22,242.00 446.94,233.50"/><polygon points="417.50,267.50 417.50,284.50 402.78,293.00 388.05,284.50 388.05,267.50 402.78,259.00"/><polygon points="343.89,395.00 343.89,412.00 329.16,420.50 314.44,412.00 314.44,395.00 329.16,386.50"/><polygon points="299.72,471.50 299.72,488.50 285.00,497.00 270.27,488.50 270.27,471.50 285.00,463.00"/><polygon points="358.61,573.50 358.61,590.50 343.89,599.00 329.16,590.50 329.16,573.50 343.89,565.00"/><polygon points="373.33,599.00 373.33,616.00 358.61,624.50 343.89,616.00 343.89,599.00 358.61,590.50"/><polygon points="402.78,650.00 402.78,667.00 388.05,675.50 373.33,667.00 373.33,650.00 388.05,641.50"/><polygon points="446.94,726.50 446.94,743.50 432.22,752.00 417.50,743.50 417.50,726.50 432.22,718.00"/><polygon points="535.28,726.50 535.28,743.50 520.56,752.00 505.83,743.50 505.83,726.50 520.56,718.00"/><polygon points="564.72,726.50 564.72,743.50 550.00,752.00 535.28,743.50 535.28,726.50 550.00,718.00"/><polygon points="594.17,726.50 594.17,743.50 579.44,752.00 564.72,743.50 564.72,726.50 579.44,718.00"/><polygon points="653.06,726.50 653.06,743.50 638.33,752.00 623.61,743.50 623.61,726.50 638.33,718.00"/><polygon points="726.67,701.00 726.67,718.00 711.95,726.50 697.22,718.00 697.22,701.00 711.95,692.50"/><polygon points="770.84,624.50 770.84,641.50 756.11,650.00 741.39,641.50 741.39,624.50 756.11,616.00"/><polygon points="785.56,599.00 785.56,616.00 770.84,624.50 756.11,616.00 756.11,599.00 770.84,590.50"/><polygon points="800.28,573.50 800.28,590.50 785.56,599.00 770.84,590.50 770.84,573.50 785.56,565.00"/><polygon points="815.00,548.00 815.00,565.00 800.28,573.50 785.56,565.00 785.56,548.00 800.28,539.50"/><polygon points="829.73,522.50 829.73,539.50 815.00,548.00 800.28,539.50 800.28,522.50 815.00,514.00"/><polygon points="859.17,471.50 859.17,488.50 844.45,497.00 829.73,488.50 829.73,471.50 844.45,463.00"/><polygon points="829.73,420.50 829.73,437.50 815.00,446.00 800.28,437.50 800.28,420.50 815.00,412.00"/><polygon points="815.00,395.00 815.00,412.00 800.28,420.50 785.56,412.00 785.56,395.00 800.28,386.50"/><polygon points="785.56,344.00 785.56,361.00 770.84,369.50 756.11,361.00 756.11,344.00 770.84,335.50"/><polygon points="756.11,293.00 756.11,310.00 741.39,318.50 726.67,310.00 726.67,293.00 741.39,284.50"/><polygon points="726.67,242.00 726.67,259.00 711.95,267.50 697.22,259.00 697.22,242.00 711.95,233.50"/><polygon points="711.95,216.50 711.95,233.50 697.22,242.00 682.50,233.50 682.50,216.50 697.22,208.00"/><polygon points="653.06,216.50 653.06,233.50 638.33,242.00 623.61,233.50 623.61,216.50 638.33,208.00"/><polygon points="594.17,216.50 594.17,233.50 579.44,242.00 564.72,233.50 564.72,216.50 579.44,208.00"/><polygon points="417.50,216.50 417.50,233.50 402.78,242.00 388.05,233.50 388.05,216.50 402.78,208.00"/><polygon points="373.33,293.00 373.33,310.00 358.61,318.50 343.89,310.00 343.89,293.00 358.61,284.50"/><polygon points="358.61,318.50 358.61,335.50 343.89,344.00 329.16,335.50 329.16,318.50 343.89,310.00"/><polygon points="343.89,344.00 343.89,361.00 329.16,369.50 314.44,361.00 314.44,344.00 329.16,335.50"/><polygon points="299.72,420.50 299.72,437.50 285.00,446.00 270.27,437.50 270.27,420.50 285.00,412.00"/><polygon points="285.00,497.00 285.00,514.00 270.27,522.50 255.55,514.00 255.55,497.00 270.27,488.50"/><polygon points="329.16,573.50 329.16,590.50 314.44,599.00 299.72,590.50 299.72,573.50 314.44,565.00"/><polygon points="358.61,624.50 358.61,641.50 343.89,650.00 329.16,641.50 329.16,624.50 343.89,616.00"/><polygon points="388.05,675.50 388.05,692.50 373.33,701.00 358.61,692.50 358.61,675.50 373.33,667.00"/><polygon points="402.78,701.00 402.78,718.00 388.05,726.50 373.33,718.00 373.33,701.00 388.05,692.50"/><polygon points="432.22,752.00 432.22,769.00 417.50,777.50 402.78,769.00 402.78,752.00 417.50,743.50"/><polygon points="461.67,752.00 461.67,769.00 446.94,777.50 432.22,769.00 432.22,752.00 446.94,743.50"/><polygon points="520.56,752.00 520.56,769.00 505.83,777.50 491.11,769.00 491.11,752.00 505.83,743.50"/><polygon points="579.44,752.00 579.44,769.00 564.72,777.50 550.00,769.00 550.00,752.00 564.72,743.50"/><polygon points="638.33,752.00 638.33,769.00 623.61,777.50 608.89,769.00 608.89,752.00 623.61,743.50"/><polygon points="667.78,752.00 667.78,769.00 653.06,777.50 638.33,769.00 638.33,752.00 653.06,743.50"/><polygon points="697.22,752.00 697.22,769.00 682.50,777.50 667.78,769.00 667.78,752.00 682.50,743.50"/><polygon points="726.67,752.00 726.67,769.00 711.95,777.50 697.22,769.00 697.22,752.00 711.95,743.50"/><polygon points="741.39,726.50 741.39,743.50 726.67,752.00 711.95,743.50 711.95,726.50 726.67,718.00"/><polygon points="770.84,675.50 770.84,692.50 756.11,701.00 741.39,692.50 741.39,675.50 756.11,667.00"/><polygon points="785.56,650.00 785.56,667.00 770.84,675.50 756.11,667.00 756.11,650.00 770.84,641.50"/><polygon points="815.00,599.00 815.00,616.00 800.28,624.50 785.56,616.00 785.56,599.00 800.28,590.50"/><polygon points="829.73,573.50 829.73,590.50 815.00,599.00 800.28,590.50 800.28,573.50 815.00,565.00"/><polygon points="873.89,446.00 873.89,463.00 859.17,471.50 844.45,463.00 844.45,446.00 859.17,437.50"/><polygon points="859.17,420.50 859.17,437.50 844.45,446.00 829.73,437.50 829.73,420.50 844.45,412.00"/><polygon points="829.73,369.50 829.73,386.50 815.00,395.00 800.28,386.50 800.28,369.50 815.00,361.00"/><polygon points="815.00,344.00 815.00,361.00 800.28,369.50 785.56,361.00 785.56,344.00 800.28,335.50"/><polygon points="800.28,318.50 800.28,335.50 785.56,344.00 770.84,335.50 770.84,318.50 785.56,310.00"/><polygon points="756.11,242.00 756.11,259.00 741.39,267.50 726.67,259.00 726.67,242.00 741.39,233.50"/><polygon points="667.78,191.00 667.78,208.00 653.06,216.50 638.33,208.00 638.33,191.00 653.06,182.50"/><polygon points="638.33,191.00 638.33,208.00 623.61,216.50 608.89,208.00 608.89,191.00 623.61,182.50"/><polygon points="608.89,191.00 608.89,208.00 594.17,216.50 579.44,208.00 579.44,191.00 594.17,182.50"/><polygon points="579.44,191.00 579.44,208.00 564.72,216.50 550.00,208.00 550.00,191.00 564.72,182.50"/><polygon points="550.00,191.00 550.00,208.00 535.28,216.50 520.56,208.00 520.56,191.00 535.28,182.50"/><polygon points="491.11,191.00 491.11,208.00 476.39,216.50 461.67,208.00 461.67,191.00 476.39,182.50"/><polygon points="432.22,191.00 432.22,208.00 417.50,216.50 402.78,208.00 402.78,191.00 417.50,182.50"/><polygon points="402.78,191.00 402.78,208.00 388.05,216.50 373.33,208.00 373.33,191.00 388.05,182.50"/><polygon points="358.61,267.50 358.61,284.50 343.89,293.00 329.16,284.50 329.16,267.50 343.89,259.00"/><polygon points="329.16,318.50 329.16,335.50 314.44,344.00 299.72,335.50 299.72,318.50 314.44,310.00"/><polygon points="285.00,395.00 285.00,412.00 270.27,420.50 255.55,412.00 255.55,395.00 270.27,386.50"/><polygon points="255.55,497.00 255.55,514.00 240.83,522.50 226.11,514.00 226.11,497.00 240.83,488.50"/><polygon points="285.00,548.00 285.00,565.00 270.27,573.50 255.55,565.00 255.55,548.00 270.27,539.50"/><polygon points="329.16,624.50 329.16,641.50 314.44,650.00 299.72,641.50 299.72,624.50 314.44,616.00"/><polygon points="343.89,650.00 343.89,667.00 329.16,675.50 314.44,667.00 314.44,650.00 329.16,641.50"/><polygon points="388.05,777.50 388.05,794.50 373.33,803.00 358.61,794.50 358.61,777.50 373.33,769.00"/><polygon points="417.50,777.50 417.50,794.50 402.78,803.00 388.05,794.50 388.05,777.50 402.78,769.00"/><polygon points="505.83,777.50 505.83,794.50 491.11,803.00 476.39,794.50 476.39,777.50 491.11,769.00"/><polygon points="535.28,777.50 535.28,794.50 520.56,803.00 505.83,794.50 505.83,777.50 520.56,769.00"/><polygon points="564.72,777.50 564.72,794.50 550.00,803.00 535.28,794.50 535.28,777.50 550.00,769.00"/><polygon points="623.61,777.50 623.61,794.50 608.89,803.00 594.17,794.50 594.17,777.50 608.89,769.00"/><polygon points="682.50,777.50 682.50,794.50 667.78,803.00 653.06,794.50 653.06,777.50 667.78,769.00"/><polygon points="711.95,777.50 711.95,794.50 697.22,803.00 682.50,794.50 682.50,777.50 697.22,769.00"/><polygon points="741.39,777.50 741.39,794.50 726.67,803.00 711.95,794.50 711.95,777.50 726.67,769.00"/><polygon points="756.11,752.00 756.11,769.00 741.39,777.50 726.67,769.00 726.67,752.00 741.39,743.50"/><polygon points="785.56,701.00 785.56,718.00 770.84,726.50 756.11,718.00 756.11,701.00 770.84,692.50"/><polygon points="800.28,675.50 800.28,692.50 785.56,701.00 770.84,692.50 770.84,675.50 785.56,667.00"/><polygon points="815.00,650.00 815.00,667.00 800.28,675.50 785.56,667.00 785.56,650.00 800.28,641.50"/><polygon points="844.45,599.00 844.45,616.00 829.73,624.50 815.00,616.00 815.00,599.00 829.73,590.50"/><polygon points="859.17,573.50 859.17,590.50 844.45,599.00 829.73,590.50 829.73,573.50 844.45,565.00"/><polygon points="873.89,548.00 873.89,565.00 859.17,573.50 844.45,565.00 844.45,548.00 859.17,539.50"/><polygon points="888.62,522.50 888.62,539.50 873.89,548.00 859.17,539.50 859.17,522.50 873.89,514.00"/><polygon points="903.34,497.00 903.34,514.00 888.62,522.50 873.89,514.00 873.89,497.00 888.62,488.50"/><polygon points="918.06,471.50 918.06,488.50 903.34,497.00 888.62,488.50 888.62,471.50 903.34,463.00"/><polygon points="873.89,395.00 873.89,412.00 859.17,420.50 844.45,412.00 844.45,395.00 859.17,386.50"/><polygon points="844.45,344.00 844.45,361.00 829.73,369.50 815.00,361.00 815.00,344.00 829.73,335.50"/><polygon points="800.28,267.50 800.28,284.50 785.56,293.00 770.84,284.50 770.84,267.50 785.56,259.00"/><polygon points="770.84,216.50 770.84,233.50 756.11,242.00 741.39,233.50 741.39,216.50 756.11,208.00"/><polygon points="756.11,191.00 756.11,208.00 741.39,216.50 726.67,208.00 726.67,191.00 741.39,182.50"/><polygon points="741.39,165.50 741.39,182.50 726.67,191.00 711.95,182.50 711.95,165.50 726.67,157.00"/><polygon points="682.50,165.50 682.50,182.50 667.78,191.00 653.06,182.50 653.06,165.50 667.78,157.00"/><polygon points="564.72,165.50 564.72,182.50 550.00,191.00 535.28,182.50 535.28,165.50 550.00,157.00"/><polygon points="535.28,165.50 535.28,182.50 520.56,191.00 505.83,182.50 505.83,165.50 520.56,157.00"/><polygon points="476.39,165.50 476.39,182.50 461.67,191.00 446.94,182.50 446.94,165.50 461.67,157.00"/><polygon points="446.94,165.50 446.94,182.50 432.22,191.00 417.50,182.50 417.50,165.50 432.22,157.00"/><polygon points="388.05,165.50 388.05,182.50 373.33,191.00 358.61,182.50 358.61,165.50 373.33,157.00"/><polygon points="373.33,191.00 373.33,208.00 358.61,216.50 343.89,208.00 343.89,191.00 358.61,182.50"/><polygon points="329.16,267.50 329.16,284.50 314.44,293.00 299.72,284.50 299.72,267.50 314.44,259.00"/><polygon points="314.44,293.00 314.44,310.00 299.72,318.50 285.00,310.00 285.00,293.00 299.72,284.50"/><polygon points="285.00,344.00 285.00,361.00 270.27,369.50 255.55,361.00 255.55,344.00 270.27,335.50"/><polygon points="270.27,369.50 270.27,386.50 255.55,395.00 240.83,386.50 240.83,369.50 255.55,361.00"/><polygon points="255.55,395.00 255.55,412.00 240.83,420.50 226.11,412.00 226.11,395.00 240.83,386.50"/><polygon points="211.38,471.50 211.38,488.50 196.66,497.00 181.94,488.50 181.94,471.50 196.66,463.00"/><polygon points="226.11,497.00 226.11,514.00 211.38,522.50 196.66,514.00 196.66,497.00 211.38,488.50"/><polygon points="299.72,624.50 299.72,641.50 285.00,650.00 270.27,641.50 270.27,624.50 285.00,616.00"/><polygon points="314.44,650.00 314.44,667.00 299.72,675.50 285.00,667.00 285.00,650.00 299.72,641.50"/><polygon points="329.16,675.50 329.16,692.50 314.44,701.00 299.72,692.50 299.72,675.50 314.44,667.00"/><polygon points="343.89,701.00 343.89,718.00 329.16,726.50 314.44,718.00 314.44,701.00 329.16,692.50"/><polygon points="358.61,726.50 358.61,743.50 343.89,752.00 329.16,743.50 329.16,726.50 343.89,718.00"/><polygon points="402.78,803.00 402.78,820.00 388.05,828.50 373.33,820.00 373.33,803.00 388.05,794.50"/><polygon points="579.44,803.00 579.44,820.00 564.72,828.50 550.00,820.00 550.00,803.00 564.72,794.50"/><polygon points="608.89,803.00 608.89,820.00 594.17,828.50 579.44,820.00 579.44,803.00 594.17,794.50"/><polygon points="667.78,803.00 667.78,820.00 653.06,828.50 638.33,820.00 638.33,803.00 653.06,794.50"/><polygon points="726.67,803.00 726.67,820.00 711.95,828.50 697.22,820.00 697.22,803.00 711.95,794.50"/><polygon points="770.84,777.50 770.84,794.50 756.11,803.00 741.39,794.50 741.39,777.50 756.11,769.00"/><polygon points="785.56,752.00 785.56,769.00 770.84,777.50 756.11,769.00 756.11,752.00 770.84,743.50"/><polygon points="800.28,726.50 800.28,743.50 785.56,752.00 770.84,743.50 770.84,726.50 785.56,718.00"/><polygon points="873.89,599.00 873.89,616.00 859.17,624.50 844.45,616.00 844.45,599.00 859.17,590.50"/><polygon points="918.06,522.50 918.06,539.50 903.34,548.00 888.62,539.50 888.62,522.50 903.34,514.00"/><polygon points="932.78,497.00 932.78,514.00 918.06,522.50 903.34,514.00 903.34,497.00 918.06,488.50"/><polygon points="947.51,471.50 947.51,488.50 932.78,497.00 918.06,488.50 918.06,471.50 932.78,463.00"/><polygon points="903.34,395.00 903.34,412.00 888.62,420.50 873.89,412.00 873.89,395.00 888.62,386.50"/><polygon points="888.62,369.50 888.62,386.50 873.89,395.00 859.17,386.50 859.17,369.50 873.89,361.00"/><polygon points="815.00,242.00 815.00,259.00 800.28,267.50 785.56,259.00 785.56,242.00 800.28,233.50"/><polygon points="785.56,191.00 785.56,208.00 770.84,216.50 756.11,208.00 756.11,191.00 770.84,182.50"/><polygon points="770.84,165.50 770.84,182.50 756.11,191.00 741.39,182.50 741.39,165.50 756.11,157.00"/><polygon points="726.67,140.00 726.67,157.00 711.95,165.50 697.22,157.00 697.22,140.00 711.95,131.50"/><polygon points="697.22,140.00 697.22,157.00 682.50,165.50 667.78,157.00 667.78,140.00 682.50,131.50"/><polygon points="579.44,140.00 579.44,157.00 564.72,165.50 550.00,157.00 550.00,140.00 564.72,131.50"/><polygon points="520.56,140.00 520.56,157.00 505.83,165.50 491.11,157.00 491.11,140.00 505.83,131.50"/><polygon points="461.67,140.00 461.67,157.00 446.94,165.50 432.22,157.00 432.22,140.00 446.94,131.50"/><polygon points="402.78,140.00 402.78,157.00 388.05,165.50 373.33,157.00 373.33,140.00 388.05,131.50"/><polygon points="358.61,165.50 358.61,182.50 343.89,191.00 329.16,182.50 329.16,165.50 343.89,157.00"/><polygon points="285.00,293.00 285.00,310.00 270.27,318.50 255.55,310.00 255.55,293.00 270.27,284.50"/><polygon points="270.27,318.50 270.27,335.50 255.55,344.00 240.83,335.50 240.83,318.50 255.55,310.00"/><polygon points="226.11,395.00 226.11,412.00 211.38,420.50 196.66,412.00 196.66,395.00 211.38,386.50"/><polygon points="211.38,420.50 211.38,437.50 196.66,446.00 181.94,437.50 181.94,420.50 196.66,412.00"/><polygon points="211.38,522.50 211.38,539.50 196.66,548.00 181.94,539.50 181.94,522.50 196.66,514.00"/><polygon points="226.11,548.00 226.11,565.00 211.38,573.50 196.66,565.00 196.66,548.00 211.38,539.50"/><polygon points="255.55,599.00 255.55,616.00 240.83,624.50 226.11,616.00 226.11,599.00 240.83,590.50"/><polygon points="329.16,726.50 329.16,743.50 314.44,752.00 299.72,743.50 299.72,726.50 314.44,718.00"/><polygon points="343.89,752.00 343.89,769.00 329.16,777.50 314.44,769.00 314.44,752.00 329.16,743.50"/><polygon points="358.61,777.50 358.61,794.50 343.89,803.00 329.16,794.50 329.16,777.50 343.89,769.00"/><polygon points="358.61,828.50 358.61,845.50 343.89,854.00 329.16,845.50 329.16,828.50 343.89,820.00"/><polygon points="417.50,828.50 417.50,845.50 402.78,854.00 388.05,845.50 388.05,828.50 402.78,820.00"/><polygon points="476.39,828.50 476.39,845.50 461.67,854.00 446.94,845.50 446.94,828.50 461.67,820.00"/><polygon points="505.83,828.50 505.83,845.50 491.11,854.00 476.39,845.50 476.39,828.50 491.11,820.00"/><polygon points="623.61,828.50 623.61,845.50 608.89,854.00 594.17,845.50 594.17,828.50 608.89,820.00"/><polygon points="653.06,828.50 653.06,845.50 638.33,854.00 623.61,845.50 623.61,828.50 638.33,820.00"/><polygon points="682.50,828.50 682.50,845.50 667.78,854.00 653.06,845.50 653.06,828.50 667.78,820.00"/><polygon points="711.95,828.50 711.95,845.50 697.22,854.00 682.50,845.50 682.50,828.50 697.22,820.00"/><polygon points="800.28,777.50 800.28,794.50 785.56,803.00 770.84,794.50 770.84,777.50 785.56,769.00"/><polygon points="815.00,752.00 815.00,769.00 800.28,777.50 785.56,769.00 785.56,752.00 800.28,743.50"/><polygon points="829.73,726.50 829.73,743.50 815.00,752.00 800.28,743.50 800.28,726.50 815.00,718.00"/><polygon points="844.45,701.00 844.45,718.00 829.73,726.50 815.00,718.00 815.00,701.00 829.73,692.50"/><polygon points="903.34,599.00 903.34,616.00 888.62,624.50 873.89,616.00 873.89,599.00 888.62,590.50"/><polygon points="918.06,573.50 918.06,590.50 903.34,599.00 888.62,590.50 888.62,573.50 903.34,565.00"/><polygon points="932.78,548.00 932.78,565.00 918.06,573.50 903.34,565.00 903.34,548.00 918.06,539.50"/><polygon points="962.23,497.00 962.23,514.00 947.51,522.50 932.78,514.00 932.78,497.00 947.51,488.50"/><polygon points="976.95,471.50 976.95,488.50 962.23,497.00 947.51,488.50 947.51,471.50 962.23,463.00"/><polygon points="962.23,446.00 962.23,463.00 947.51,471.50 932.78,463.00 932.78,446.00 947.51,437.50"/><polygon points="947.51,420.50 947.51,437.50 932.78,446.00 918.06,437.50 918.06,420.50 932.78,412.00"/><polygon points="918.06,369.50 918.06,386.50 903.34,395.00 888.62,386.50 888.62,369.50 903.34,361.00"/><polygon points="903.34,344.00 903.34,361.00 888.62,369.50 873.89,361.00 873.89,344.00 888.62,335.50"/><polygon points="859.17,267.50 859.17,284.50 844.45,293.00 829.73,284.50 829.73,267.50 844.45,259.00"/><polygon points="800.28,165.50 800.28,182.50 785.56,191.00 770.84,182.50 770.84,165.50 785.56,157.00"/><polygon points="711.95,114.50 711.95,131.50 697.22,140.00 682.50,131.50 682.50,114.50 697.22,106.00"/><polygon points="535.28,114.50 535.28,131.50 520.56,140.00 505.83,131.50 505.83,114.50 520.56,106.00"/><polygon points="476.39,114.50 476.39,131.50 461.67,140.00 446.94,131.50 446.94,114.50 461.67,106.00"/><polygon points="446.94,114.50 446.94,131.50 432.22,140.00 417.50,131.50 417.50,114.50 432.22,106.00"/><polygon points="417.50,114.50 417.50,131.50 402.78,140.00 388.05,131.50 388.05,114.50 402.78,106.00"/><polygon points="329.16,165.50 329.16,182.50 314.44,191.00 299.72,182.50 299.72,165.50 314.44,157.00"/><polygon points="299.72,216.50 299.72,233.50 285.00,242.00 270.27,233.50 270.27,216.50 285.00,208.00"/><polygon points="285.00,242.00 285.00,259.00 270.27,267.50 255.55,259.00 255.55,242.00 270.27,233.50"/><polygon points="255.55,293.00 255.55,310.00 240.83,318.50 226.11,310.00 226.11,293.00 240.83,284.50"/><polygon points="240.83,318.50 240.83,335.50 226.11,344.00 211.38,335.50 211.38,318.50 226.11,310.00"/><polygon points="226.11,344.00 226.11,361.00 211.38,369.50 196.66,361.00 196.66,344.00 211.38,335.50"/><polygon points="211.38,369.50 211.38,386.50 196.66,395.00 181.94,386.50 181.94,369.50 196.66,361.00"/><polygon points="181.94,420.50 181.94,437.50 167.22,446.00 152.49,437.50 152.49,420.50 167.22,412.00"/><polygon points="167.22,446.00 167.22,463.00 152.49,471.50 137.77,463.00 137.77,446.00 152.49,437.50"/><polygon points="181.94,522.50 181.94,539.50 167.22,548.00 152.49,539.50 152.49,522.50 167.22,514.00"/><polygon points="211.38,573.50 211.38,590.50 196.66,599.00 181.94,590.50 181.94,573.50 196.66,565.00"/><polygon points="240.83,624.50 240.83,641.50 226.11,650.00 211.38,641.50 211.38,624.50 226.11,616.00"/><polygon points="255.55,650.00 255.55,667.00 240.83,675.50 226.11,667.00 226.11,650.00 240.83,641.50"/><polygon points="270.27,675.50 270.27,692.50 255.55,701.00 240.83,692.50 240.83,675.50 255.55,667.00"/><polygon points="299.72,726.50 299.72,743.50 285.00,752.00 270.27,743.50 270.27,726.50 285.00,718.00"/><polygon points="329.16,777.50 329.16,794.50 314.44,803.00 299.72,794.50 299.72,777.50 314.44,769.00"/><polygon points="402.78,854.00 402.78,871.00 388.05,879.50 373.33,871.00 373.33,854.00 388.05,845.50"/><polygon points="432.22,854.00 432.22,871.00 417.50,879.50 402.78,871.00 402.78,854.00 417.50,845.50"/><polygon points="520.56,854.00 520.56,871.00 505.83,879.50 491.11,871.00 491.11,854.00 505.83,845.50"/><polygon points="550.00,854.00 550.00,871.00 535.28,879.50 520.56,871.00 520.56,854.00 535.28,845.50"/><polygon points="638.33,854.00 638.33,871.00 623.61,879.50 608.89,871.00 608.89,854.00 623.61,845.50"/><polygon points="697.22,854.00 697.22,871.00 682.50,879.50 667.78,871.00 667.78,854.00 682.50,845.50"/><polygon points="726.67,854.00 726.67,871.00 711.95,879.50 697.22,871.00 697.22,854.00 711.95,845.50"/><polygon points="815.00,803.00 815.00,820.00 800.28,828.50 785.56,820.00 785.56,803.00 800.28,794.50"/><polygon points="829.73,777.50 829.73,794.50 815.00,803.00 800.28,794.50 800.28,777.50 815.00,769.00"/><polygon points="903.34,650.00 903.34,667.00 888.62,675.50 873.89,667.00 873.89,650.00 888.62,641.50"/><polygon points="932.78,599.00 932.78,616.00 918.06,624.50 903.34,616.00 903.34,599.00 918.06,590.50"/><polygon points="991.67,497.00 991.67,514.00 976.95,522.50 962.23,514.00 962.23,497.00 976.95,488.50"/><polygon points="976.95,420.50 976.95,437.50 962.23,446.00 947.51,437.50 947.51,420.50 962.23,412.00"/><polygon points="962.23,395.00 962.23,412.00 947.51,420.50 932.78,412.00 932.78,395.00 947.51,386.50"/><polygon points="947.51,369.50 947.51,386.50 932.78,395.00 918.06,386.50 918.06,369.50 932.78,361.00"/><polygon points="888.62,267.50 888.62,284.50 873.89,293.00 859.17,284.50 859.17,267.50 873.89,259.00"/><polygon points="873.89,242.00 873.89,259.00 859.17,267.50 844.45,259.00 844.45,242.00 859.17,233.50"/><polygon points="859.17,216.50 859.17,233.50 844.45,242.00 829.73,233.50 829.73,216.50 844.45,208.00"/><polygon points="815.00,140.00 815.00,157.00 800.28,165.50 785.56,157.00 785.56,140.00 800.28,131.50"/><polygon points="726.67,89.00 726.67,106.00 711.95,114.50 697.22,106.00 697.22,89.00 711.95,80.50"/><polygon points="667.78,89.00 667.78,106.00 653.06,114.50 638.33,106.00 638.33,89.00 653.06,80.50"/><polygon points="608.89,89.00 608.89,106.00 594.17,114.50 579.44,106.00 579.44,89.00 594.17,80.50"/><polygon points="579.44,89.00 579.44,106.00 564.72,114.50 550.00,106.00 550.00,89.00 564.72,80.50"/><polygon points="550.00,89.00 550.00,106.00 535.28,114.50 520.56,106.00 520.56,89.00 535.28,80.50"/><polygon points="432.22,89.00 432.22,106.00 417.50,114.50 402.78,106.00 402.78,89.00 417.50,80.50"/><polygon points="402.78,89.00 402.78,106.00 388.05,114.50 373.33,106.00 373.33,89.00 388.05,80.50"/><polygon points="314.44,140.00 314.44,157.00 299.72,165.50 285.00,157.00 285.00,140.00 299.72,131.50"/><polygon points="299.72,165.50 299.72,182.50 285.00,191.00 270.27,182.50 270.27,165.50 285.00,157.00"/><polygon points="270.27,216.50 270.27,233.50 255.55,242.00 240.83,233.50 240.83,216.50 255.55,208.00"/><polygon points="211.38,318.50 211.38,335.50 196.66,344.00 181.94,335.50 181.94,318.50 196.66,310.00"/><polygon points="167.22,395.00 167.22,412.00 152.49,420.50 137.77,412.00 137.77,395.00 152.49,386.50"/><polygon points="152.49,420.50 152.49,437.50 137.77,446.00 123.05,437.50 123.05,420.50 137.77,412.00"/><polygon points="137.77,497.00 137.77,514.00 123.05,522.50 108.33,514.00 108.33,497.00 123.05,488.50"/><polygon points="167.22,548.00 167.22,565.00 152.49,573.50 137.77,565.00 137.77,548.00 152.49,539.50"/><polygon points="181.94,573.50 181.94,590.50 167.22,599.00 152.49,590.50 152.49,573.50 167.22,565.00"/><polygon points="196.66,599.00 196.66,616.00 181.94,624.50 167.22,616.00 167.22,599.00 181.94,590.50"/><polygon points="226.11,650.00 226.11,667.00 211.38,675.50 196.66,667.00 196.66,650.00 211.38,641.50"/><polygon points="270.27,726.50 270.27,743.50 255.55,752.00 240.83,743.50 240.83,726.50 255.55,718.00"/><polygon points="285.00,752.00 285.00,769.00 270.27,777.50 255.55,769.00 255.55,752.00 270.27,743.50"/><polygon points="314.44,803.00 314.44,820.00 299.72,828.50 285.00,820.00 285.00,803.00 299.72,794.50"/><polygon points="329.16,879.50 329.16,896.50 314.44,905.00 299.72,896.50 299.72,879.50 314.44,871.00"/><polygon points="358.61,879.50 358.61,896.50 343.89,905.00 329.16,896.50 329.16,879.50 343.89,871.00"/><polygon points="388.05,879.50 388.05,896.50 373.33,905.00 358.61,896.50 358.61,879.50 373.33,871.00"/><polygon points="446.94,879.50 446.94,896.50 432.22,905.00 417.50,896.50 417.50,879.50 432.22,871.00"/><polygon points="476.39,879.50 476.39,896.50 461.67,905.00 446.94,896.50 446.94,879.50 461.67,871.00"/><polygon points="535.28,879.50 535.28,896.50 520.56,905.00 505.83,896.50 505.83,879.50 520.56,871.00"/><polygon points="623.61,879.50 623.61,896.50 608.89,905.00 594.17,896.50 594.17,879.50 608.89,871.00"/><polygon points="653.06,879.50 653.06,896.50 638.33,905.00 623.61,896.50 623.61,879.50 638.33,871.00"/><polygon points="711.95,879.50 711.95,896.50 697.22,905.00 682.50,896.50 682.50,879.50 697.22,871.00"/><polygon points="741.39,879.50 741.39,896.50 726.67,905.00 711.95,896.50 711.95,879.50 726.67,871.00"/><polygon points="770.84,879.50 770.84,896.50 756.11,905.00 741.39,896.50 741.39,879.50 756.11,871.00"/><polygon points="800.28,879.50 800.28,896.50 785.56,905.00 770.84,896.50 770.84,879.50 785.56,871.00"/><polygon points="815.00,854.00 815.00,871.00 800.28,879.50 785.56,871.00 785.56,854.00 800.28,845.50"/><polygon points="829.73,828.50 829.73,845.50 815.00,854.00 800.28,845.50 800.28,828.50 815.00,820.00"/><polygon points="844.45,803.00 844.45,820.00 829.73,828.50 815.00,820.00 815.00,803.00 829.73,794.50"/><polygon points="859.17,777.50 859.17,794.50 844.45,803.00 829.73,794.50 829.73,777.50 844.45,769.00"/><polygon points="888.62,726.50 888.62,743.50 873.89,752.00 859.17,743.50 859.17,726.50 873.89,718.00"/><polygon points="903.34,701.00 903.34,718.00 888.62,726.50 873.89,718.00 873.89,701.00 888.62,692.50"/><polygon points="918.06,675.50 918.06,692.50 903.34,701.00 888.62,692.50 888.62,675.50 903.34,667.00"/><polygon points="932.78,650.00 932.78,667.00 918.06,675.50 903.34,667.00 903.34,650.00 918.06,641.50"/><polygon points="947.51,624.50 947.51,641.50 932.78,650.00 918.06,641.50 918.06,624.50 932.78,616.00"/><polygon points="962.23,599.00 962.23,616.00 947.51,624.50 932.78,616.00 932.78,599.00 947.51,590.50"/><polygon points="991.67,548.00 991.67,565.00 976.95,573.50 962.23,565.00 962.23,548.00 976.95,539.50"/><polygon points="1006.40,522.50 1006.40,539.50 991.67,548.00 976.95,539.50 976.95,522.50 991.67,514.00"/><polygon points="1021.12,497.00 1021.12,514.00 1006.40,522.50 991.67,514.00 991.67,497.00 1006.40,488.50"/><polygon points="1006.40,420.50 1006.40,437.50 991.67,446.00 976.95,437.50 976.95,420.50 991.67,412.00"/><polygon points="976.95,369.50 976.95,386.50 962.23,395.00 947.51,386.50 947.51,369.50 962.23,361.00"/><polygon points="947.51,318.50 947.51,335.50 932.78,344.00 918.06,335.50 918.06,318.50 932.78,310.00"/><polygon points="932.78,293.00 932.78,310.00 918.06,318.50 903.34,310.00 903.34,293.00 918.06,284.50"/><polygon points="918.06,267.50 918.06,284.50 903.34,293.00 888.62,284.50 888.62,267.50 903.34,259.00"/><polygon points="903.34,242.00 903.34,259.00 888.62,267.50 873.89,259.00 873.89,242.00 888.62,233.50"/><polygon points="859.17,165.50 859.17,182.50 844.45,191.00 829.73,182.50 829.73,165.50 844.45,157.00"/><polygon points="844.45,140.00 844.45,157.00 829.73,165.50 815.00,157.00 815.00,140.00 829.73,131.50"/><polygon points="829.73,114.50 829.73,131.50 815.00,140.00 800.28,131.50 800.28,114.50 815.00,106.00"/><polygon points="815.00,89.00 815.00,106.00 800.28,114.50 785.56,106.00 785.56,89.00 800.28,80.50"/><polygon points="800.28,63.50 800.28,80.50 785.56,89.00 770.84,80.50 770.84,63.50 785.56,55.00"/><polygon points="770.84,63.50 770.84,80.50 756.11,89.00 741.39,80.50 741.39,63.50 756.11,55.00"/><polygon points="741.39,63.50 741.39,80.50 726.67,89.00 711.95,80.50 711.95,63.50 726.67,55.00"/><polygon points="653.06,63.50 653.06,80.50 638.33,89.00 623.61,80.50 623.61,63.50 638.33,55.00"/><polygon points="623.61,63.50 623.61,80.50 608.89,89.00 594.17,80.50 594.17,63.50 608.89,55.00"/><polygon points="594.17,63.50 594.17,80.50 579.44,89.00 564.72,80.50 564.72,63.50 579.44,55.00"/><polygon points="564.72,63.50 564.72,80.50 550.00,89.00 535.28,80.50 535.28,63.50 550.00,55.00"/><polygon points="535.28,63.50 535.28,80.50 520.56,89.00 505.83,80.50 505.83,63.50 520.56,55.00"/><polygon points="476.39,63.50 476.39,80.50 461.67,89.00 446.94,80.50 446.94,63.50 461.67,55.00"/><polygon points="417.50,63.50 417.50,80.50 402.78,89.00 388.05,80.50 388.05,63.50 402.78,55.00"/><polygon points="388.05,63.50 388.05,80.50 373.33,89.00 358.61,80.50 358.61,63.50 373.33,55.00"/><polygon points="358.61,63.50 358.61,80.50 343.89,89.00 329.16,80.50 329.16,63.50 343.89,55.00"/><polygon points="329.16,63.50 329.16,80.50 314.44,89.00 299.72,80.50 299.72,63.50 314.44,55.00"/><polygon points="314.44,89.00 314.44,106.00 299.72,114.50 285.00,106.00 285.00,89.00 299.72,80.50"/><polygon points="299.72,114.50 299.72,131.50 285.00,140.00 270.27,131.50 270.27,114.50 285.00,106.00"/><polygon points="285.00,140.00 285.00,157.00 270.27,165.50 255.55,157.00 255.55,140.00 270.27,131.50"/><polygon points="240.83,216.50 240.83,233.50 226.11,242.00 211.38,233.50 211.38,216.50 226.11,208.00"/><polygon points="211.38,267.50 211.38,284.50 196.66,293.00 181.94,284.50 181.94,267.50 196.66,259.00"/><polygon points="196.66,293.00 196.66,310.00 181.94,318.50 167.22,310.00 167.22,293.00 181.94,284.50"/><polygon points="167.22,344.00 167.22,361.00 152.49,369.50 137.77,361.00 137.77,344.00 152.49,335.50"/><polygon points="152.49,369.50 152.49,386.50 137.77,395.00 123.05,386.50 123.05,369.50 137.77,361.00"/><polygon points="123.05,420.50 123.05,437.50 108.33,446.00 93.60,437.50 93.60,420.50 108.33,412.00"/><polygon points="108.33,446.00 108.33,463.00 93.60,471.50 78.88,463.00 78.88,446.00 93.60,437.50"/><polygon points="93.60,471.50 93.60,488.50 78.88,497.00 64.16,488.50 64.16,471.50 78.88,463.00"/><polygon points="108.33,497.00 108.33,514.00 93.60,522.50 78.88,514.00 78.88,497.00 93.60,488.50"/><polygon points="137.77,548.00 137.77,565.00 123.05,573.50 108.33,565.00 108.33,548.00 123.05,539.50"/><polygon points="152.49,573.50 152.49,590.50 137.77,599.00 123.05,590.50 123.05,573.50 137.77,565.00"/><polygon points="211.38,675.50 211.38,692.50 196.66,701.00 181.94,692.50 181.94,675.50 196.66,667.00"/><polygon points="299.72,828.50 299.72,845.50 285.00,854.00 270.27,845.50 270.27,828.50 285.00,820.00"/><polygon points="314.44,854.00 314.44,871.00 299.72,879.50 285.00,871.00 285.00,854.00 299.72,845.50"/></g>
  <g fill="#111827" stroke="#111827" stroke-width="0.7"><polygon points="564.72,471.50 564.72,488.50 550.00,497.00 535.28,488.50 535.28,471.50 550.00,463.00"/><polygon points="550.00,497.00 550.00,514.00 535.28,522.50 520.56,514.00 520.56,497.00 535.28,488.50"/><polygon points="579.44,497.00 579.44,514.00 564.72,522.50 550.00,514.00 550.00,497.00 564.72,488.50"/><polygon points="550.00,446.00 550.00,463.00 535.28,471.50 520.56,463.00 520.56,446.00 535.28,437.50"/><polygon points="535.28,522.50 535.28,539.50 520.56,548.00 505.83,539.50 505.83,522.50 520.56,514.00"/><polygon points="564.72,522.50 564.72,539.50 550.00,548.00 535.28,539.50 535.28,522.50 550.00,514.00"/><polygon points="623.61,471.50 623.61,488.50 608.89,497.00 594.17,488.50 594.17,471.50 608.89,463.00"/><polygon points="535.28,420.50 535.28,437.50 520.56,446.00 505.83,437.50 505.83,420.50 520.56,412.00"/><polygon points="505.83,471.50 505.83,488.50 491.11,497.00 476.39,488.50 476.39,471.50 491.11,463.00"/><polygon points="520.56,497.00 520.56,514.00 505.83,522.50 491.11,514.00 491.11,497.00 505.83,488.50"/><polygon points="550.00,548.00 550.00,565.00 535.28,573.50 520.56,565.00 520.56,548.00 535.28,539.50"/><polygon points="638.33,497.00 638.33,514.00 623.61,522.50 608.89,514.00 608.89,497.00 623.61,488.50"/><polygon points="653.06,471.50 653.06,488.50 638.33,497.00 623.61,488.50 623.61,471.50 638.33,463.00"/><polygon points="638.33,446.00 638.33,463.00 623.61,471.50 608.89,463.00 608.89,446.00 623.61,437.50"/><polygon points="608.89,395.00 608.89,412.00 594.17,420.50 579.44,412.00 579.44,395.00 594.17,386.50"/><polygon points="550.00,395.00 550.00,412.00 535.28,420.50 520.56,412.00 520.56,395.00 535.28,386.50"/><polygon points="520.56,395.00 520.56,412.00 505.83,420.50 491.11,412.00 491.11,395.00 505.83,386.50"/><polygon points="476.39,471.50 476.39,488.50 461.67,497.00 446.94,488.50 446.94,471.50 461.67,463.00"/><polygon points="505.83,573.50 505.83,590.50 491.11,599.00 476.39,590.50 476.39,573.50 491.11,565.00"/><polygon points="535.28,573.50 535.28,590.50 520.56,599.00 505.83,590.50 505.83,573.50 520.56,565.00"/><polygon points="564.72,573.50 564.72,590.50 550.00,599.00 535.28,590.50 535.28,573.50 550.00,565.00"/><polygon points="623.61,573.50 623.61,590.50 608.89,599.00 594.17,590.50 594.17,573.50 608.89,565.00"/><polygon points="638.33,548.00 638.33,565.00 623.61,573.50 608.89,565.00 608.89,548.00 623.61,539.50"/><polygon points="653.06,522.50 653.06,539.50 638.33,548.00 623.61,539.50 623.61,522.50 638.33,514.00"/><polygon points="667.78,497.00 667.78,514.00 653.06,522.50 638.33,514.00 638.33,497.00 653.06,488.50"/><polygon points="682.50,471.50 682.50,488.50 667.78,497.00 653.06,488.50 653.06,471.50 667.78,463.00"/><polygon points="653.06,420.50 653.06,437.50 638.33,446.00 623.61,437.50 623.61,420.50 638.33,412.00"/><polygon points="638.33,395.00 638.33,412.00 623.61,420.50 608.89,412.00 608.89,395.00 623.61,386.50"/><polygon points="623.61,369.50 623.61,386.50 608.89,395.00 594.17,386.50 594.17,369.50 608.89,361.00"/><polygon points="535.28,369.50 535.28,386.50 520.56,395.00 505.83,386.50 505.83,369.50 520.56,361.00"/><polygon points="505.83,369.50 505.83,386.50 491.11,395.00 476.39,386.50 476.39,369.50 491.11,361.00"/><polygon points="461.67,497.00 461.67,514.00 446.94,522.50 432.22,514.00 432.22,497.00 446.94,488.50"/><polygon points="476.39,522.50 476.39,539.50 461.67,548.00 446.94,539.50 446.94,522.50 461.67,514.00"/><polygon points="491.11,548.00 491.11,565.00 476.39,573.50 461.67,565.00 461.67,548.00 476.39,539.50"/><polygon points="520.56,599.00 520.56,616.00 505.83,624.50 491.11,616.00 491.11,599.00 505.83,590.50"/><polygon points="608.89,599.00 608.89,616.00 594.17,624.50 579.44,616.00 579.44,599.00 594.17,590.50"/><polygon points="638.33,599.00 638.33,616.00 623.61,624.50 608.89,616.00 608.89,599.00 623.61,590.50"/><polygon points="653.06,573.50 653.06,590.50 638.33,599.00 623.61,590.50 623.61,573.50 638.33,565.00"/><polygon points="667.78,548.00 667.78,565.00 653.06,573.50 638.33,565.00 638.33,548.00 653.06,539.50"/><polygon points="682.50,522.50 682.50,539.50 667.78,548.00 653.06,539.50 653.06,522.50 667.78,514.00"/><polygon points="697.22,497.00 697.22,514.00 682.50,522.50 667.78,514.00 667.78,497.00 682.50,488.50"/><polygon points="711.95,471.50 711.95,488.50 697.22,497.00 682.50,488.50 682.50,471.50 697.22,463.00"/><polygon points="697.22,446.00 697.22,463.00 682.50,471.50 667.78,463.00 667.78,446.00 682.50,437.50"/><polygon points="682.50,420.50 682.50,437.50 667.78,446.00 653.06,437.50 653.06,420.50 667.78,412.00"/><polygon points="608.89,344.00 608.89,361.00 594.17,369.50 579.44,361.00 579.44,344.00 594.17,335.50"/><polygon points="579.44,344.00 579.44,361.00 564.72,369.50 550.00,361.00 550.00,344.00 564.72,335.50"/><polygon points="550.00,344.00 550.00,361.00 535.28,369.50 520.56,361.00 520.56,344.00 535.28,335.50"/><polygon points="520.56,344.00 520.56,361.00 505.83,369.50 491.11,361.00 491.11,344.00 505.83,335.50"/><polygon points="446.94,420.50 446.94,437.50 432.22,446.00 417.50,437.50 417.50,420.50 432.22,412.00"/><polygon points="432.22,446.00 432.22,463.00 417.50,471.50 402.78,463.00 402.78,446.00 417.50,437.50"/><polygon points="417.50,471.50 417.50,488.50 402.78,497.00 388.05,488.50 388.05,471.50 402.78,463.00"/><polygon points="476.39,624.50 476.39,641.50 461.67,650.00 446.94,641.50 446.94,624.50 461.67,616.00"/><polygon points="505.83,624.50 505.83,641.50 491.11,650.00 476.39,641.50 476.39,624.50 491.11,616.00"/><polygon points="535.28,624.50 535.28,641.50 520.56,650.00 505.83,641.50 505.83,624.50 520.56,616.00"/><polygon points="623.61,624.50 623.61,641.50 608.89,650.00 594.17,641.50 594.17,624.50 608.89,616.00"/><polygon points="682.50,573.50 682.50,590.50 667.78,599.00 653.06,590.50 653.06,573.50 667.78,565.00"/><polygon points="726.67,497.00 726.67,514.00 711.95,522.50 697.22,514.00 697.22,497.00 711.95,488.50"/><polygon points="741.39,471.50 741.39,488.50 726.67,497.00 711.95,488.50 711.95,471.50 726.67,463.00"/><polygon points="726.67,446.00 726.67,463.00 711.95,471.50 697.22,463.00 697.22,446.00 711.95,437.50"/><polygon points="697.22,395.00 697.22,412.00 682.50,420.50 667.78,412.00 667.78,395.00 682.50,386.50"/><polygon points="682.50,369.50 682.50,386.50 667.78,395.00 653.06,386.50 653.06,369.50 667.78,361.00"/><polygon points="667.78,344.00 667.78,361.00 653.06,369.50 638.33,361.00 638.33,344.00 653.06,335.50"/><polygon points="623.61,318.50 623.61,335.50 608.89,344.00 594.17,335.50 594.17,318.50 608.89,310.00"/><polygon points="535.28,318.50 535.28,335.50 520.56,344.00 505.83,335.50 505.83,318.50 520.56,310.00"/><polygon points="505.83,318.50 505.83,335.50 491.11,344.00 476.39,335.50 476.39,318.50 491.11,310.00"/><polygon points="461.67,344.00 461.67,361.00 446.94,369.50 432.22,361.00 432.22,344.00 446.94,335.50"/><polygon points="432.22,395.00 432.22,412.00 417.50,420.50 402.78,412.00 402.78,395.00 417.50,386.50"/><polygon points="388.05,471.50 388.05,488.50 373.33,497.00 358.61,488.50 358.61,471.50 373.33,463.00"/><polygon points="402.78,497.00 402.78,514.00 388.05,522.50 373.33,514.00 373.33,497.00 388.05,488.50"/><polygon points="417.50,522.50 417.50,539.50 402.78,548.00 388.05,539.50 388.05,522.50 402.78,514.00"/><polygon points="446.94,573.50 446.94,590.50 432.22,599.00 417.50,590.50 417.50,573.50 432.22,565.00"/><polygon points="461.67,650.00 461.67,667.00 446.94,675.50 432.22,667.00 432.22,650.00 446.94,641.50"/><polygon points="491.11,650.00 491.11,667.00 476.39,675.50 461.67,667.00 461.67,650.00 476.39,641.50"/><polygon points="638.33,650.00 638.33,667.00 623.61,675.50 608.89,667.00 608.89,650.00 623.61,641.50"/><polygon points="667.78,650.00 667.78,667.00 653.06,675.50 638.33,667.00 638.33,650.00 653.06,641.50"/><polygon points="697.22,599.00 697.22,616.00 682.50,624.50 667.78,616.00 667.78,599.00 682.50,590.50"/><polygon points="726.67,548.00 726.67,565.00 711.95,573.50 697.22,565.00 697.22,548.00 711.95,539.50"/><polygon points="770.84,471.50 770.84,488.50 756.11,497.00 741.39,488.50 741.39,471.50 756.11,463.00"/><polygon points="711.95,369.50 711.95,386.50 697.22,395.00 682.50,386.50 682.50,369.50 697.22,361.00"/><polygon points="682.50,318.50 682.50,335.50 667.78,344.00 653.06,335.50 653.06,318.50 667.78,310.00"/><polygon points="550.00,293.00 550.00,310.00 535.28,318.50 520.56,310.00 520.56,293.00 535.28,284.50"/><polygon points="520.56,293.00 520.56,310.00 505.83,318.50 491.11,310.00 491.11,293.00 505.83,284.50"/><polygon points="491.11,293.00 491.11,310.00 476.39,318.50 461.67,310.00 461.67,293.00 476.39,284.50"/><polygon points="446.94,318.50 446.94,335.50 432.22,344.00 417.50,335.50 417.50,318.50 432.22,310.00"/><polygon points="388.05,420.50 388.05,437.50 373.33,446.00 358.61,437.50 358.61,420.50 373.33,412.00"/><polygon points="373.33,446.00 373.33,463.00 358.61,471.50 343.89,463.00 343.89,446.00 358.61,437.50"/><polygon points="358.61,471.50 358.61,488.50 343.89,497.00 329.16,488.50 329.16,471.50 343.89,463.00"/><polygon points="373.33,497.00 373.33,514.00 358.61,522.50 343.89,514.00 343.89,497.00 358.61,488.50"/><polygon points="388.05,522.50 388.05,539.50 373.33,548.00 358.61,539.50 358.61,522.50 373.33,514.00"/><polygon points="402.78,548.00 402.78,565.00 388.05,573.50 373.33,565.00 373.33,548.00 388.05,539.50"/><polygon points="417.50,573.50 417.50,590.50 402.78,599.00 388.05,590.50 388.05,573.50 402.78,565.00"/><polygon points="446.94,624.50 446.94,641.50 432.22,650.00 417.50,641.50 417.50,624.50 432.22,616.00"/><polygon points="564.72,675.50 564.72,692.50 550.00,701.00 535.28,692.50 535.28,675.50 550.00,667.00"/><polygon points="594.17,675.50 594.17,692.50 579.44,701.00 564.72,692.50 564.72,675.50 579.44,667.00"/><polygon points="682.50,675.50 682.50,692.50 667.78,701.00 653.06,692.50 653.06,675.50 667.78,667.00"/><polygon points="756.11,548.00 756.11,565.00 741.39,573.50 726.67,565.00 726.67,548.00 741.39,539.50"/><polygon points="770.84,522.50 770.84,539.50 756.11,548.00 741.39,539.50 741.39,522.50 756.11,514.00"/><polygon points="785.56,497.00 785.56,514.00 770.84,522.50 756.11,514.00 756.11,497.00 770.84,488.50"/><polygon points="770.84,420.50 770.84,437.50 756.11,446.00 741.39,437.50 741.39,420.50 756.11,412.00"/><polygon points="697.22,293.00 697.22,310.00 682.50,318.50 667.78,310.00 667.78,293.00 682.50,284.50"/><polygon points="594.17,267.50 594.17,284.50 579.44,293.00 564.72,284.50 564.72,267.50 579.44,259.00"/><polygon points="535.28,267.50 535.28,284.50 520.56,293.00 505.83,284.50 505.83,267.50 520.56,259.00"/><polygon points="476.39,267.50 476.39,284.50 461.67,293.00 446.94,284.50 446.94,267.50 461.67,259.00"/><polygon points="446.94,267.50 446.94,284.50 432.22,293.00 417.50,284.50 417.50,267.50 432.22,259.00"/><polygon points="358.61,420.50 358.61,437.50 343.89,446.00 329.16,437.50 329.16,420.50 343.89,412.00"/><polygon points="343.89,497.00 343.89,514.00 329.16,522.50 314.44,514.00 314.44,497.00 329.16,488.50"/><polygon points="417.50,624.50 417.50,641.50 402.78,650.00 388.05,641.50 388.05,624.50 402.78,616.00"/><polygon points="432.22,650.00 432.22,667.00 417.50,675.50 402.78,667.00 402.78,650.00 417.50,641.50"/><polygon points="432.22,701.00 432.22,718.00 417.50,726.50 402.78,718.00 402.78,701.00 417.50,692.50"/><polygon points="461.67,701.00 461.67,718.00 446.94,726.50 432.22,718.00 432.22,701.00 446.94,692.50"/><polygon points="520.56,701.00 520.56,718.00 505.83,726.50 491.11,718.00 491.11,701.00 505.83,692.50"/><polygon points="550.00,701.00 550.00,718.00 535.28,726.50 520.56,718.00 520.56,701.00 535.28,692.50"/><polygon points="579.44,701.00 579.44,718.00 564.72,726.50 550.00,718.00 550.00,701.00 564.72,692.50"/><polygon points="638.33,701.00 638.33,718.00 623.61,726.50 608.89,718.00 608.89,701.00 623.61,692.50"/><polygon points="697.22,701.00 697.22,718.00 682.50,726.50 667.78,718.00 667.78,701.00 682.50,692.50"/><polygon points="711.95,675.50 711.95,692.50 697.22,701.00 682.50,692.50 682.50,675.50 697.22,667.00"/><polygon points="726.67,650.00 726.67,667.00 711.95,675.50 697.22,667.00 697.22,650.00 711.95,641.50"/><polygon points="770.84,573.50 770.84,590.50 756.11,599.00 741.39,590.50 741.39,573.50 756.11,565.00"/><polygon points="785.56,548.00 785.56,565.00 770.84,573.50 756.11,565.00 756.11,548.00 770.84,539.50"/><polygon points="815.00,497.00 815.00,514.00 800.28,522.50 785.56,514.00 785.56,497.00 800.28,488.50"/><polygon points="770.84,369.50 770.84,386.50 756.11,395.00 741.39,386.50 741.39,369.50 756.11,361.00"/><polygon points="756.11,344.00 756.11,361.00 741.39,369.50 726.67,361.00 726.67,344.00 741.39,335.50"/><polygon points="726.67,293.00 726.67,310.00 711.95,318.50 697.22,310.00 697.22,293.00 711.95,284.50"/><polygon points="711.95,267.50 711.95,284.50 697.22,293.00 682.50,284.50 682.50,267.50 697.22,259.00"/><polygon points="667.78,242.00 667.78,259.00 653.06,267.50 638.33,259.00 638.33,242.00 653.06,233.50"/><polygon points="579.44,242.00 579.44,259.00 564.72,267.50 550.00,259.00 550.00,242.00 564.72,233.50"/><polygon points="520.56,242.00 520.56,259.00 505.83,267.50 491.11,259.00 491.11,242.00 505.83,233.50"/><polygon points="491.11,242.00 491.11,259.00 476.39,267.50 461.67,259.00 461.67,242.00 476.39,233.50"/><polygon points="432.22,242.00 432.22,259.00 417.50,267.50 402.78,259.00 402.78,242.00 417.50,233.50"/><polygon points="402.78,293.00 402.78,310.00 388.05,318.50 373.33,310.00 373.33,293.00 388.05,284.50"/><polygon points="388.05,318.50 388.05,335.50 373.33,344.00 358.61,335.50 358.61,318.50 373.33,310.00"/><polygon points="373.33,344.00 373.33,361.00 358.61,369.50 343.89,361.00 343.89,344.00 358.61,335.50"/><polygon points="358.61,369.50 358.61,386.50 343.89,395.00 329.16,386.50 329.16,369.50 343.89,361.00"/><polygon points="329.16,420.50 329.16,437.50 314.44,446.00 299.72,437.50 299.72,420.50 314.44,412.00"/><polygon points="314.44,446.00 314.44,463.00 299.72,471.50 285.00,463.00 285.00,446.00 299.72,437.50"/><polygon points="314.44,497.00 314.44,514.00 299.72,522.50 285.00,514.00 285.00,497.00 299.72,488.50"/><polygon points="329.16,522.50 329.16,539.50 314.44,548.00 299.72,539.50 299.72,522.50 314.44,514.00"/><polygon points="343.89,548.00 343.89,565.00 329.16,573.50 314.44,565.00 314.44,548.00 329.16,539.50"/><polygon points="388.05,624.50 388.05,641.50 373.33,650.00 358.61,641.50 358.61,624.50 373.33,616.00"/><polygon points="417.50,675.50 417.50,692.50 402.78,701.00 388.05,692.50 388.05,675.50 402.78,667.00"/><polygon points="417.50,726.50 417.50,743.50 402.78,752.00 388.05,743.50 388.05,726.50 402.78,718.00"/><polygon points="476.39,726.50 476.39,743.50 461.67,752.00 446.94,743.50 446.94,726.50 461.67,718.00"/><polygon points="505.83,726.50 505.83,743.50 491.11,752.00 476.39,743.50 476.39,726.50 491.11,718.00"/><polygon points="623.61,726.50 623.61,743.50 608.89,752.00 594.17,743.50 594.17,726.50 608.89,718.00"/><polygon points="682.50,726.50 682.50,743.50 667.78,752.00 653.06,743.50 653.06,726.50 667.78,718.00"/><polygon points="711.95,726.50 711.95,743.50 697.22,752.00 682.50,743.50 682.50,726.50 697.22,718.00"/><polygon points="741.39,675.50 741.39,692.50 726.67,701.00 711.95,692.50 711.95,675.50 726.67,667.00"/><polygon points="756.11,650.00 756.11,667.00 741.39,675.50 726.67,667.00 726.67,650.00 741.39,641.50"/><polygon points="844.45,497.00 844.45,514.00 829.73,522.50 815.00,514.00 815.00,497.00 829.73,488.50"/><polygon points="844.45,446.00 844.45,463.00 829.73,471.50 815.00,463.00 815.00,446.00 829.73,437.50"/><polygon points="800.28,369.50 800.28,386.50 785.56,395.00 770.84,386.50 770.84,369.50 785.56,361.00"/><polygon points="770.84,318.50 770.84,335.50 756.11,344.00 741.39,335.50 741.39,318.50 756.11,310.00"/><polygon points="741.39,267.50 741.39,284.50 726.67,293.00 711.95,284.50 711.95,267.50 726.67,259.00"/><polygon points="682.50,216.50 682.50,233.50 667.78,242.00 653.06,233.50 653.06,216.50 667.78,208.00"/><polygon points="623.61,216.50 623.61,233.50 608.89,242.00 594.17,233.50 594.17,216.50 608.89,208.00"/><polygon points="564.72,216.50 564.72,233.50 550.00,242.00 535.28,233.50 535.28,216.50 550.00,208.00"/><polygon points="535.28,216.50 535.28,233.50 520.56,242.00 505.83,233.50 505.83,216.50 520.56,208.00"/><polygon points="505.83,216.50 505.83,233.50 491.11,242.00 476.39,233.50 476.39,216.50 491.11,208.00"/><polygon points="476.39,216.50 476.39,233.50 461.67,242.00 446.94,233.50 446.94,216.50 461.67,208.00"/><polygon points="446.94,216.50 446.94,233.50 432.22,242.00 417.50,233.50 417.50,216.50 432.22,208.00"/><polygon points="402.78,242.00 402.78,259.00 388.05,267.50 373.33,259.00 373.33,242.00 388.05,233.50"/><polygon points="388.05,267.50 388.05,284.50 373.33,293.00 358.61,284.50 358.61,267.50 373.33,259.00"/><polygon points="329.16,369.50 329.16,386.50 314.44,395.00 299.72,386.50 299.72,369.50 314.44,361.00"/><polygon points="314.44,395.00 314.44,412.00 299.72,420.50 285.00,412.00 285.00,395.00 299.72,386.50"/><polygon points="285.00,446.00 285.00,463.00 270.27,471.50 255.55,463.00 255.55,446.00 270.27,437.50"/><polygon points="270.27,471.50 270.27,488.50 255.55,497.00 240.83,488.50 240.83,471.50 255.55,463.00"/><polygon points="299.72,522.50 299.72,539.50 285.00,548.00 270.27,539.50 270.27,522.50 285.00,514.00"/><polygon points="314.44,548.00 314.44,565.00 299.72,573.50 285.00,565.00 285.00,548.00 299.72,539.50"/><polygon points="343.89,599.00 343.89,616.00 329.16,624.50 314.44,616.00 314.44,599.00 329.16,590.50"/><polygon points="373.33,650.00 373.33,667.00 358.61,675.50 343.89,667.00 343.89,650.00 358.61,641.50"/><polygon points="402.78,752.00 402.78,769.00 388.05,777.50 373.33,769.00 373.33,752.00 388.05,743.50"/><polygon points="491.11,752.00 491.11,769.00 476.39,777.50 461.67,769.00 461.67,752.00 476.39,743.50"/><polygon points="550.00,752.00 550.00,769.00 535.28,777.50 520.56,769.00 520.56,752.00 535.28,743.50"/><polygon points="608.89,752.00 608.89,769.00 594.17,777.50 579.44,769.00 579.44,752.00 594.17,743.50"/><polygon points="756.11,701.00 756.11,718.00 741.39,726.50 726.67,718.00 726.67,701.00 741.39,692.50"/><polygon points="800.28,624.50 800.28,641.50 785.56,650.00 770.84,641.50 770.84,624.50 785.56,616.00"/><polygon points="844.45,548.00 844.45,565.00 829.73,573.50 815.00,565.00 815.00,548.00 829.73,539.50"/><polygon points="859.17,522.50 859.17,539.50 844.45,548.00 829.73,539.50 829.73,522.50 844.45,514.00"/><polygon points="873.89,497.00 873.89,514.00 859.17,522.50 844.45,514.00 844.45,497.00 859.17,488.50"/><polygon points="888.62,471.50 888.62,488.50 873.89,497.00 859.17,488.50 859.17,471.50 873.89,463.00"/><polygon points="844.45,395.00 844.45,412.00 829.73,420.50 815.00,412.00 815.00,395.00 829.73,386.50"/><polygon points="785.56,293.00 785.56,310.00 770.84,318.50 756.11,310.00 756.11,293.00 770.84,284.50"/><polygon points="770.84,267.50 770.84,284.50 756.11,293.00 741.39,284.50 741.39,267.50 756.11,259.00"/><polygon points="741.39,216.50 741.39,233.50 726.67,242.00 711.95,233.50 711.95,216.50 726.67,208.00"/><polygon points="726.67,191.00 726.67,208.00 711.95,216.50 697.22,208.00 697.22,191.00 711.95,182.50"/><polygon points="697.22,191.00 697.22,208.00 682.50,216.50 667.78,208.00 667.78,191.00 682.50,182.50"/><polygon points="520.56,191.00 520.56,208.00 505.83,216.50 491.11,208.00 491.11,191.00 505.83,182.50"/><polygon points="461.67,191.00 461.67,208.00 446.94,216.50 432.22,208.00 432.22,191.00 446.94,182.50"/><polygon points="388.05,216.50 388.05,233.50 373.33,242.00 358.61,233.50 358.61,216.50 373.33,208.00"/><polygon points="373.33,242.00 373.33,259.00 358.61,267.50 343.89,259.00 343.89,242.00 358.61,233.50"/><polygon points="343.89,293.00 343.89,310.00 329.16,318.50 314.44,310.00 314.44,293.00 329.16,284.50"/><polygon points="314.44,344.00 314.44,361.00 299.72,369.50 285.00,361.00 285.00,344.00 299.72,335.50"/><polygon points="299.72,369.50 299.72,386.50 285.00,395.00 270.27,386.50 270.27,369.50 285.00,361.00"/><polygon points="270.27,420.50 270.27,437.50 255.55,446.00 240.83,437.50 240.83,420.50 255.55,412.00"/><polygon points="255.55,446.00 255.55,463.00 240.83,471.50 226.11,463.00 226.11,446.00 240.83,437.50"/><polygon points="240.83,471.50 240.83,488.50 226.11,497.00 211.38,488.50 211.38,471.50 226.11,463.00"/><polygon points="270.27,522.50 270.27,539.50 255.55,548.00 240.83,539.50 240.83,522.50 255.55,514.00"/><polygon points="299.72,573.50 299.72,590.50 285.00,599.00 270.27,590.50 270.27,573.50 285.00,565.00"/><polygon points="314.44,599.00 314.44,616.00 299.72,624.50 285.00,616.00 285.00,599.00 299.72,590.50"/><polygon points="358.61,675.50 358.61,692.50 343.89,701.00 329.16,692.50 329.16,675.50 343.89,667.00"/><polygon points="373.33,701.00 373.33,718.00 358.61,726.50 343.89,718.00 343.89,701.00 358.61,692.50"/><polygon points="388.05,726.50 388.05,743.50 373.33,752.00 358.61,743.50 358.61,726.50 373.33,718.00"/><polygon points="446.94,777.50 446.94,794.50 432.22,803.00 417.50,794.50 417.50,777.50 432.22,769.00"/><polygon points="476.39,777.50 476.39,794.50 461.67,803.00 446.94,794.50 446.94,777.50 461.67,769.00"/><polygon points="594.17,777.50 594.17,794.50 579.44,803.00 564.72,794.50 564.72,777.50 579.44,769.00"/><polygon points="653.06,777.50 653.06,794.50 638.33,803.00 623.61,794.50 623.61,777.50 638.33,769.00"/><polygon points="770.84,726.50 770.84,743.50 756.11,752.00 741.39,743.50 741.39,726.50 756.11,718.00"/><polygon points="829.73,624.50 829.73,641.50 815.00,650.00 800.28,641.50 800.28,624.50 815.00,616.00"/><polygon points="903.34,446.00 903.34,463.00 888.62,471.50 873.89,463.00 873.89,446.00 888.62,437.50"/><polygon points="888.62,420.50 888.62,437.50 873.89,446.00 859.17,437.50 859.17,420.50 873.89,412.00"/><polygon points="859.17,369.50 859.17,386.50 844.45,395.00 829.73,386.50 829.73,369.50 844.45,361.00"/><polygon points="829.73,318.50 829.73,335.50 815.00,344.00 800.28,335.50 800.28,318.50 815.00,310.00"/><polygon points="815.00,293.00 815.00,310.00 800.28,318.50 785.56,310.00 785.56,293.00 800.28,284.50"/><polygon points="785.56,242.00 785.56,259.00 770.84,267.50 756.11,259.00 756.11,242.00 770.84,233.50"/><polygon points="711.95,165.50 711.95,182.50 697.22,191.00 682.50,182.50 682.50,165.50 697.22,157.00"/><polygon points="653.06,165.50 653.06,182.50 638.33,191.00 623.61,182.50 623.61,165.50 638.33,157.00"/><polygon points="623.61,165.50 623.61,182.50 608.89,191.00 594.17,182.50 594.17,165.50 608.89,157.00"/><polygon points="594.17,165.50 594.17,182.50 579.44,191.00 564.72,182.50 564.72,165.50 579.44,157.00"/><polygon points="505.83,165.50 505.83,182.50 491.11,191.00 476.39,182.50 476.39,165.50 491.11,157.00"/><polygon points="417.50,165.50 417.50,182.50 402.78,191.00 388.05,182.50 388.05,165.50 402.78,157.00"/><polygon points="358.61,216.50 358.61,233.50 343.89,242.00 329.16,233.50 329.16,216.50 343.89,208.00"/><polygon points="343.89,242.00 343.89,259.00 329.16,267.50 314.44,259.00 314.44,242.00 329.16,233.50"/><polygon points="299.72,318.50 299.72,335.50 285.00,344.00 270.27,335.50 270.27,318.50 285.00,310.00"/><polygon points="240.83,420.50 240.83,437.50 226.11,446.00 211.38,437.50 211.38,420.50 226.11,412.00"/><polygon points="226.11,446.00 226.11,463.00 211.38,471.50 196.66,463.00 196.66,446.00 211.38,437.50"/><polygon points="240.83,522.50 240.83,539.50 226.11,548.00 211.38,539.50 211.38,522.50 226.11,514.00"/><polygon points="255.55,548.00 255.55,565.00 240.83,573.50 226.11,565.00 226.11,548.00 240.83,539.50"/><polygon points="270.27,573.50 270.27,590.50 255.55,599.00 240.83,590.50 240.83,573.50 255.55,565.00"/><polygon points="285.00,599.00 285.00,616.00 270.27,624.50 255.55,616.00 255.55,599.00 270.27,590.50"/><polygon points="373.33,752.00 373.33,769.00 358.61,777.50 343.89,769.00 343.89,752.00 358.61,743.50"/><polygon points="373.33,803.00 373.33,820.00 358.61,828.50 343.89,820.00 343.89,803.00 358.61,794.50"/><polygon points="432.22,803.00 432.22,820.00 417.50,828.50 402.78,820.00 402.78,803.00 417.50,794.50"/><polygon points="461.67,803.00 461.67,820.00 446.94,828.50 432.22,820.00 432.22,803.00 446.94,794.50"/><polygon points="491.11,803.00 491.11,820.00 476.39,828.50 461.67,820.00 461.67,803.00 476.39,794.50"/><polygon points="520.56,803.00 520.56,820.00 505.83,828.50 491.11,820.00 491.11,803.00 505.83,794.50"/><polygon points="550.00,803.00 550.00,820.00 535.28,828.50 520.56,820.00 520.56,803.00 535.28,794.50"/><polygon points="638.33,803.00 638.33,820.00 623.61,828.50 608.89,820.00 608.89,803.00 623.61,794.50"/><polygon points="697.22,803.00 697.22,820.00 682.50,828.50 667.78,820.00 667.78,803.00 682.50,794.50"/><polygon points="756.11,803.00 756.11,820.00 741.39,828.50 726.67,820.00 726.67,803.00 741.39,794.50"/><polygon points="815.00,701.00 815.00,718.00 800.28,726.50 785.56,718.00 785.56,701.00 800.28,692.50"/><polygon points="829.73,675.50 829.73,692.50 815.00,701.00 800.28,692.50 800.28,675.50 815.00,667.00"/><polygon points="844.45,650.00 844.45,667.00 829.73,675.50 815.00,667.00 815.00,650.00 829.73,641.50"/><polygon points="859.17,624.50 859.17,641.50 844.45,650.00 829.73,641.50 829.73,624.50 844.45,616.00"/><polygon points="888.62,573.50 888.62,590.50 873.89,599.00 859.17,590.50 859.17,573.50 873.89,565.00"/><polygon points="903.34,548.00 903.34,565.00 888.62,573.50 873.89,565.00 873.89,548.00 888.62,539.50"/><polygon points="932.78,446.00 932.78,463.00 918.06,471.50 903.34,463.00 903.34,446.00 918.06,437.50"/><polygon points="918.06,420.50 918.06,437.50 903.34,446.00 888.62,437.50 888.62,420.50 903.34,412.00"/><polygon points="873.89,344.00 873.89,361.00 859.17,369.50 844.45,361.00 844.45,344.00 859.17,335.50"/><polygon points="859.17,318.50 859.17,335.50 844.45,344.00 829.73,335.50 829.73,318.50 844.45,310.00"/><polygon points="844.45,293.00 844.45,310.00 829.73,318.50 815.00,310.00 815.00,293.00 829.73,284.50"/><polygon points="829.73,267.50 829.73,284.50 815.00,293.00 800.28,284.50 800.28,267.50 815.00,259.00"/><polygon points="800.28,216.50 800.28,233.50 785.56,242.00 770.84,233.50 770.84,216.50 785.56,208.00"/><polygon points="756.11,140.00 756.11,157.00 741.39,165.50 726.67,157.00 726.67,140.00 741.39,131.50"/><polygon points="667.78,140.00 667.78,157.00 653.06,165.50 638.33,157.00 638.33,140.00 653.06,131.50"/><polygon points="638.33,140.00 638.33,157.00 623.61,165.50 608.89,157.00 608.89,140.00 623.61,131.50"/><polygon points="608.89,140.00 608.89,157.00 594.17,165.50 579.44,157.00 579.44,140.00 594.17,131.50"/><polygon points="550.00,140.00 550.00,157.00 535.28,165.50 520.56,157.00 520.56,140.00 535.28,131.50"/><polygon points="491.11,140.00 491.11,157.00 476.39,165.50 461.67,157.00 461.67,140.00 476.39,131.50"/><polygon points="432.22,140.00 432.22,157.00 417.50,165.50 402.78,157.00 402.78,140.00 417.50,131.50"/><polygon points="373.33,140.00 373.33,157.00 358.61,165.50 343.89,157.00 343.89,140.00 358.61,131.50"/><polygon points="343.89,191.00 343.89,208.00 329.16,216.50 314.44,208.00 314.44,191.00 329.16,182.50"/><polygon points="329.16,216.50 329.16,233.50 314.44,242.00 299.72,233.50 299.72,216.50 314.44,208.00"/><polygon points="314.44,242.00 314.44,259.00 299.72,267.50 285.00,259.00 285.00,242.00 299.72,233.50"/><polygon points="299.72,267.50 299.72,284.50 285.00,293.00 270.27,284.50 270.27,267.50 285.00,259.00"/><polygon points="255.55,344.00 255.55,361.00 240.83,369.50 226.11,361.00 226.11,344.00 240.83,335.50"/><polygon points="240.83,369.50 240.83,386.50 226.11,395.00 211.38,386.50 211.38,369.50 226.11,361.00"/><polygon points="196.66,446.00 196.66,463.00 181.94,471.50 167.22,463.00 167.22,446.00 181.94,437.50"/><polygon points="181.94,471.50 181.94,488.50 167.22,497.00 152.49,488.50 152.49,471.50 167.22,463.00"/><polygon points="196.66,497.00 196.66,514.00 181.94,522.50 167.22,514.00 167.22,497.00 181.94,488.50"/><polygon points="240.83,573.50 240.83,590.50 226.11,599.00 211.38,590.50 211.38,573.50 226.11,565.00"/><polygon points="270.27,624.50 270.27,641.50 255.55,650.00 240.83,641.50 240.83,624.50 255.55,616.00"/><polygon points="285.00,650.00 285.00,667.00 270.27,675.50 255.55,667.00 255.55,650.00 270.27,641.50"/><polygon points="299.72,675.50 299.72,692.50 285.00,701.00 270.27,692.50 270.27,675.50 285.00,667.00"/><polygon points="314.44,701.00 314.44,718.00 299.72,726.50 285.00,718.00 285.00,701.00 299.72,692.50"/><polygon points="388.05,828.50 388.05,845.50 373.33,854.00 358.61,845.50 358.61,828.50 373.33,820.00"/><polygon points="446.94,828.50 446.94,845.50 432.22,854.00 417.50,845.50 417.50,828.50 432.22,820.00"/><polygon points="535.28,828.50 535.28,845.50 520.56,854.00 505.83,845.50 505.83,828.50 520.56,820.00"/><polygon points="564.72,828.50 564.72,845.50 550.00,854.00 535.28,845.50 535.28,828.50 550.00,820.00"/><polygon points="594.17,828.50 594.17,845.50 579.44,854.00 564.72,845.50 564.72,828.50 579.44,820.00"/><polygon points="741.39,828.50 741.39,845.50 726.67,854.00 711.95,845.50 711.95,828.50 726.67,820.00"/><polygon points="770.84,828.50 770.84,845.50 756.11,854.00 741.39,845.50 741.39,828.50 756.11,820.00"/><polygon points="785.56,803.00 785.56,820.00 770.84,828.50 756.11,820.00 756.11,803.00 770.84,794.50"/><polygon points="859.17,675.50 859.17,692.50 844.45,701.00 829.73,692.50 829.73,675.50 844.45,667.00"/><polygon points="873.89,650.00 873.89,667.00 859.17,675.50 844.45,667.00 844.45,650.00 859.17,641.50"/><polygon points="888.62,624.50 888.62,641.50 873.89,650.00 859.17,641.50 859.17,624.50 873.89,616.00"/><polygon points="947.51,522.50 947.51,539.50 932.78,548.00 918.06,539.50 918.06,522.50 932.78,514.00"/><polygon points="932.78,395.00 932.78,412.00 918.06,420.50 903.34,412.00 903.34,395.00 918.06,386.50"/><polygon points="888.62,318.50 888.62,335.50 873.89,344.00 859.17,335.50 859.17,318.50 873.89,310.00"/><polygon points="873.89,293.00 873.89,310.00 859.17,318.50 844.45,310.00 844.45,293.00 859.17,284.50"/><polygon points="844.45,242.00 844.45,259.00 829.73,267.50 815.00,259.00 815.00,242.00 829.73,233.50"/><polygon points="829.73,216.50 829.73,233.50 815.00,242.00 800.28,233.50 800.28,216.50 815.00,208.00"/><polygon points="815.00,191.00 815.00,208.00 800.28,216.50 785.56,208.00 785.56,191.00 800.28,182.50"/><polygon points="785.56,140.00 785.56,157.00 770.84,165.50 756.11,157.00 756.11,140.00 770.84,131.50"/><polygon points="770.84,114.50 770.84,131.50 756.11,140.00 741.39,131.50 741.39,114.50 756.11,106.00"/><polygon points="741.39,114.50 741.39,131.50 726.67,140.00 711.95,131.50 711.95,114.50 726.67,106.00"/><polygon points="682.50,114.50 682.50,131.50 667.78,140.00 653.06,131.50 653.06,114.50 667.78,106.00"/><polygon points="653.06,114.50 653.06,131.50 638.33,140.00 623.61,131.50 623.61,114.50 638.33,106.00"/><polygon points="623.61,114.50 623.61,131.50 608.89,140.00 594.17,131.50 594.17,114.50 608.89,106.00"/><polygon points="594.17,114.50 594.17,131.50 579.44,140.00 564.72,131.50 564.72,114.50 579.44,106.00"/><polygon points="564.72,114.50 564.72,131.50 550.00,140.00 535.28,131.50 535.28,114.50 550.00,106.00"/><polygon points="505.83,114.50 505.83,131.50 491.11,140.00 476.39,131.50 476.39,114.50 491.11,106.00"/><polygon points="388.05,114.50 388.05,131.50 373.33,140.00 358.61,131.50 358.61,114.50 373.33,106.00"/><polygon points="358.61,114.50 358.61,131.50 343.89,140.00 329.16,131.50 329.16,114.50 343.89,106.00"/><polygon points="343.89,140.00 343.89,157.00 329.16,165.50 314.44,157.00 314.44,140.00 329.16,131.50"/><polygon points="314.44,191.00 314.44,208.00 299.72,216.50 285.00,208.00 285.00,191.00 299.72,182.50"/><polygon points="270.27,267.50 270.27,284.50 255.55,293.00 240.83,284.50 240.83,267.50 255.55,259.00"/><polygon points="196.66,395.00 196.66,412.00 181.94,420.50 167.22,412.00 167.22,395.00 181.94,386.50"/><polygon points="152.49,471.50 152.49,488.50 137.77,497.00 123.05,488.50 123.05,471.50 137.77,463.00"/><polygon points="167.22,497.00 167.22,514.00 152.49,522.50 137.77,514.00 137.77,497.00 152.49,488.50"/><polygon points="196.66,548.00 196.66,565.00 181.94,573.50 167.22,565.00 167.22,548.00 181.94,539.50"/><polygon points="226.11,599.00 226.11,616.00 211.38,624.50 196.66,616.00 196.66,599.00 211.38,590.50"/><polygon points="285.00,701.00 285.00,718.00 270.27,726.50 255.55,718.00 255.55,701.00 270.27,692.50"/><polygon points="314.44,752.00 314.44,769.00 299.72,777.50 285.00,769.00 285.00,752.00 299.72,743.50"/><polygon points="343.89,803.00 343.89,820.00 329.16,828.50 314.44,820.00 314.44,803.00 329.16,794.50"/><polygon points="343.89,854.00 343.89,871.00 329.16,879.50 314.44,871.00 314.44,854.00 329.16,845.50"/><polygon points="373.33,854.00 373.33,871.00 358.61,879.50 343.89,871.00 343.89,854.00 358.61,845.50"/><polygon points="461.67,854.00 461.67,871.00 446.94,879.50 432.22,871.00 432.22,854.00 446.94,845.50"/><polygon points="491.11,854.00 491.11,871.00 476.39,879.50 461.67,871.00 461.67,854.00 476.39,845.50"/><polygon points="579.44,854.00 579.44,871.00 564.72,879.50 550.00,871.00 550.00,854.00 564.72,845.50"/><polygon points="608.89,854.00 608.89,871.00 594.17,879.50 579.44,871.00 579.44,854.00 594.17,845.50"/><polygon points="667.78,854.00 667.78,871.00 653.06,879.50 638.33,871.00 638.33,854.00 653.06,845.50"/><polygon points="756.11,854.00 756.11,871.00 741.39,879.50 726.67,871.00 726.67,854.00 741.39,845.50"/><polygon points="785.56,854.00 785.56,871.00 770.84,879.50 756.11,871.00 756.11,854.00 770.84,845.50"/><polygon points="800.28,828.50 800.28,845.50 785.56,854.00 770.84,845.50 770.84,828.50 785.56,820.00"/><polygon points="844.45,752.00 844.45,769.00 829.73,777.50 815.00,769.00 815.00,752.00 829.73,743.50"/><polygon points="859.17,726.50 859.17,743.50 844.45,752.00 829.73,743.50 829.73,726.50 844.45,718.00"/><polygon points="873.89,701.00 873.89,718.00 859.17,726.50 844.45,718.00 844.45,701.00 859.17,692.50"/><polygon points="888.62,675.50 888.62,692.50 873.89,701.00 859.17,692.50 859.17,675.50 873.89,667.00"/><polygon points="918.06,624.50 918.06,641.50 903.34,650.00 888.62,641.50 888.62,624.50 903.34,616.00"/><polygon points="947.51,573.50 947.51,590.50 932.78,599.00 918.06,590.50 918.06,573.50 932.78,565.00"/><polygon points="962.23,548.00 962.23,565.00 947.51,573.50 932.78,565.00 932.78,548.00 947.51,539.50"/><polygon points="976.95,522.50 976.95,539.50 962.23,548.00 947.51,539.50 947.51,522.50 962.23,514.00"/><polygon points="1006.40,471.50 1006.40,488.50 991.67,497.00 976.95,488.50 976.95,471.50 991.67,463.00"/><polygon points="991.67,446.00 991.67,463.00 976.95,471.50 962.23,463.00 962.23,446.00 976.95,437.50"/><polygon points="932.78,344.00 932.78,361.00 918.06,369.50 903.34,361.00 903.34,344.00 918.06,335.50"/><polygon points="918.06,318.50 918.06,335.50 903.34,344.00 888.62,335.50 888.62,318.50 903.34,310.00"/><polygon points="903.34,293.00 903.34,310.00 888.62,318.50 873.89,310.00 873.89,293.00 888.62,284.50"/><polygon points="844.45,191.00 844.45,208.00 829.73,216.50 815.00,208.00 815.00,191.00 829.73,182.50"/><polygon points="829.73,165.50 829.73,182.50 815.00,191.00 800.28,182.50 800.28,165.50 815.00,157.00"/><polygon points="800.28,114.50 800.28,131.50 785.56,140.00 770.84,131.50 770.84,114.50 785.56,106.00"/><polygon points="785.56,89.00 785.56,106.00 770.84,114.50 756.11,106.00 756.11,89.00 770.84,80.50"/><polygon points="756.11,89.00 756.11,106.00 741.39,114.50 726.67,106.00 726.67,89.00 741.39,80.50"/><polygon points="697.22,89.00 697.22,106.00 682.50,114.50 667.78,106.00 667.78,89.00 682.50,80.50"/><polygon points="638.33,89.00 638.33,106.00 623.61,114.50 608.89,106.00 608.89,89.00 623.61,80.50"/><polygon points="520.56,89.00 520.56,106.00 505.83,114.50 491.11,106.00 491.11,89.00 505.83,80.50"/><polygon points="491.11,89.00 491.11,106.00 476.39,114.50 461.67,106.00 461.67,89.00 476.39,80.50"/><polygon points="461.67,89.00 461.67,106.00 446.94,114.50 432.22,106.00 432.22,89.00 446.94,80.50"/><polygon points="373.33,89.00 373.33,106.00 358.61,114.50 343.89,106.00 343.89,89.00 358.61,80.50"/><polygon points="343.89,89.00 343.89,106.00 329.16,114.50 314.44,106.00 314.44,89.00 329.16,80.50"/><polygon points="329.16,114.50 329.16,131.50 314.44,140.00 299.72,131.50 299.72,114.50 314.44,106.00"/><polygon points="285.00,191.00 285.00,208.00 270.27,216.50 255.55,208.00 255.55,191.00 270.27,182.50"/><polygon points="255.55,242.00 255.55,259.00 240.83,267.50 226.11,259.00 226.11,242.00 240.83,233.50"/><polygon points="240.83,267.50 240.83,284.50 226.11,293.00 211.38,284.50 211.38,267.50 226.11,259.00"/><polygon points="226.11,293.00 226.11,310.00 211.38,318.50 196.66,310.00 196.66,293.00 211.38,284.50"/><polygon points="196.66,344.00 196.66,361.00 181.94,369.50 167.22,361.00 167.22,344.00 181.94,335.50"/><polygon points="181.94,369.50 181.94,386.50 167.22,395.00 152.49,386.50 152.49,369.50 167.22,361.00"/><polygon points="137.77,446.00 137.77,463.00 123.05,471.50 108.33,463.00 108.33,446.00 123.05,437.50"/><polygon points="123.05,471.50 123.05,488.50 108.33,497.00 93.60,488.50 93.60,471.50 108.33,463.00"/><polygon points="152.49,522.50 152.49,539.50 137.77,548.00 123.05,539.50 123.05,522.50 137.77,514.00"/><polygon points="211.38,624.50 211.38,641.50 196.66,650.00 181.94,641.50 181.94,624.50 196.66,616.00"/><polygon points="240.83,675.50 240.83,692.50 226.11,701.00 211.38,692.50 211.38,675.50 226.11,667.00"/><polygon points="255.55,701.00 255.55,718.00 240.83,726.50 226.11,718.00 226.11,701.00 240.83,692.50"/><polygon points="299.72,777.50 299.72,794.50 285.00,803.00 270.27,794.50 270.27,777.50 285.00,769.00"/><polygon points="329.16,828.50 329.16,845.50 314.44,854.00 299.72,845.50 299.72,828.50 314.44,820.00"/><polygon points="417.50,879.50 417.50,896.50 402.78,905.00 388.05,896.50 388.05,879.50 402.78,871.00"/><polygon points="505.83,879.50 505.83,896.50 491.11,905.00 476.39,896.50 476.39,879.50 491.11,871.00"/><polygon points="564.72,879.50 564.72,896.50 550.00,905.00 535.28,896.50 535.28,879.50 550.00,871.00"/><polygon points="594.17,879.50 594.17,896.50 579.44,905.00 564.72,896.50 564.72,879.50 579.44,871.00"/><polygon points="682.50,879.50 682.50,896.50 667.78,905.00 653.06,896.50 653.06,879.50 667.78,871.00"/><polygon points="873.89,752.00 873.89,769.00 859.17,777.50 844.45,769.00 844.45,752.00 859.17,743.50"/><polygon points="976.95,573.50 976.95,590.50 962.23,599.00 947.51,590.50 947.51,573.50 962.23,565.00"/><polygon points="1035.84,471.50 1035.84,488.50 1021.12,497.00 1006.40,488.50 1006.40,471.50 1021.12,463.00"/><polygon points="1021.12,446.00 1021.12,463.00 1006.40,471.50 991.67,463.00 991.67,446.00 1006.40,437.50"/><polygon points="991.67,395.00 991.67,412.00 976.95,420.50 962.23,412.00 962.23,395.00 976.95,386.50"/><polygon points="962.23,344.00 962.23,361.00 947.51,369.50 932.78,361.00 932.78,344.00 947.51,335.50"/><polygon points="888.62,216.50 888.62,233.50 873.89,242.00 859.17,233.50 859.17,216.50 873.89,208.00"/><polygon points="873.89,191.00 873.89,208.00 859.17,216.50 844.45,208.00 844.45,191.00 859.17,182.50"/><polygon points="711.95,63.50 711.95,80.50 697.22,89.00 682.50,80.50 682.50,63.50 697.22,55.00"/><polygon points="682.50,63.50 682.50,80.50 667.78,89.00 653.06,80.50 653.06,63.50 667.78,55.00"/><polygon points="505.83,63.50 505.83,80.50 491.11,89.00 476.39,80.50 476.39,63.50 491.11,55.00"/><polygon points="446.94,63.50 446.94,80.50 432.22,89.00 417.50,80.50 417.50,63.50 432.22,55.00"/><polygon points="270.27,165.50 270.27,182.50 255.55,191.00 240.83,182.50 240.83,165.50 255.55,157.00"/><polygon points="255.55,191.00 255.55,208.00 240.83,216.50 226.11,208.00 226.11,191.00 240.83,182.50"/><polygon points="226.11,242.00 226.11,259.00 211.38,267.50 196.66,259.00 196.66,242.00 211.38,233.50"/><polygon points="181.94,318.50 181.94,335.50 167.22,344.00 152.49,335.50 152.49,318.50 167.22,310.00"/><polygon points="137.77,395.00 137.77,412.00 123.05,420.50 108.33,412.00 108.33,395.00 123.05,386.50"/><polygon points="123.05,522.50 123.05,539.50 108.33,548.00 93.60,539.50 93.60,522.50 108.33,514.00"/><polygon points="167.22,599.00 167.22,616.00 152.49,624.50 137.77,616.00 137.77,599.00 152.49,590.50"/><polygon points="181.94,624.50 181.94,641.50 167.22,650.00 152.49,641.50 152.49,624.50 167.22,616.00"/><polygon points="196.66,650.00 196.66,667.00 181.94,675.50 167.22,667.00 167.22,650.00 181.94,641.50"/><polygon points="226.11,701.00 226.11,718.00 211.38,726.50 196.66,718.00 196.66,701.00 211.38,692.50"/><polygon points="240.83,726.50 240.83,743.50 226.11,752.00 211.38,743.50 211.38,726.50 226.11,718.00"/><polygon points="255.55,752.00 255.55,769.00 240.83,777.50 226.11,769.00 226.11,752.00 240.83,743.50"/><polygon points="270.27,777.50 270.27,794.50 255.55,803.00 240.83,794.50 240.83,777.50 255.55,769.00"/><polygon points="285.00,803.00 285.00,820.00 270.27,828.50 255.55,820.00 255.55,803.00 270.27,794.50"/></g>
  <text x="550" y="952" text-anchor="middle" font-family="ui-sans-serif, system-ui, sans-serif" font-size="34" font-weight="700" fill="#111827">Hexpira v0.4R</text>
  <text x="550" y="992" text-anchor="middle" font-family="ui-sans-serif, system-ui, sans-serif" font-size="19" fill="#6b7280">hexagonal · spiral · Reed–Solomon</text>
</svg>

